ISO-10303-21;
HEADER;
FILE_DESCRIPTION(('Open CASCADE Model'),'2;1');
FILE_NAME('Open CASCADE Shape Model','2026-10-09T04:12:51',('Author'),(
    'Open CASCADE'),'Open CASCADE STEP processor 7.8','Open CASCADE 7.8'
  ,'Unknown');
FILE_SCHEMA(('AUTOMOTIVE_DESIGN { 1 0 10303 214 1 1 1 1 }'));
ENDSEC;
DATA;
#1 = APPLICATION_PROTOCOL_DEFINITION('international standard',
  'automotive_design',2000,#2);
#2 = APPLICATION_CONTEXT(
  'core data for automotive mechanical design processes');
#3 = SHAPE_DEFINITION_REPRESENTATION(#4,#10);
#4 = PRODUCT_DEFINITION_SHAPE('','',#5);
#5 = PRODUCT_DEFINITION('design','',#6,#9);
#6 = PRODUCT_DEFINITION_FORMATION('','',#7);
#7 = PRODUCT('upright_pins_C02_R02','upright_pins_C02_R02','',(#8));
#8 = PRODUCT_CONTEXT('',#2,'mechanical');
#9 = PRODUCT_DEFINITION_CONTEXT('part definition',#2,'design');
#10 = SHAPE_REPRESENTATION('',(#11,#15,#19),#23);
#11 = AXIS2_PLACEMENT_3D('',#12,#13,#14);
#12 = CARTESIAN_POINT('',(0.,0.,0.));
#13 = DIRECTION('',(0.,0.,1.));
#14 = DIRECTION('',(1.,0.,-0.));
#15 = AXIS2_PLACEMENT_3D('',#16,#17,#18);
#16 = CARTESIAN_POINT('',(0.,0.,0.));
#17 = DIRECTION('',(0.,0.,1.));
#18 = DIRECTION('',(1.,0.,-0.));
#19 = AXIS2_PLACEMENT_3D('',#20,#21,#22);
#20 = CARTESIAN_POINT('',(0.,0.,0.));
#21 = DIRECTION('',(0.,0.,1.));
#22 = DIRECTION('',(1.,0.,-0.));
#23 = ( GEOMETRIC_REPRESENTATION_CONTEXT(3) 
GLOBAL_UNCERTAINTY_ASSIGNED_CONTEXT((#27)) GLOBAL_UNIT_ASSIGNED_CONTEXT(
(#24,#25,#26)) REPRESENTATION_CONTEXT('Context #1',
  '3D Context with UNIT and UNCERTAINTY') );
#24 = ( LENGTH_UNIT() NAMED_UNIT(*) SI_UNIT(.MILLI.,.METRE.) );
#25 = ( NAMED_UNIT(*) PLANE_ANGLE_UNIT() SI_UNIT($,.RADIAN.) );
#26 = ( NAMED_UNIT(*) SI_UNIT($,.STERADIAN.) SOLID_ANGLE_UNIT() );
#27 = UNCERTAINTY_MEASURE_WITH_UNIT(LENGTH_MEASURE(1.E-07),#24,
  'distance_accuracy_value','confusion accuracy');
#28 = PRODUCT_RELATED_PRODUCT_CATEGORY('part',$,(#7));
#29 = SHAPE_DEFINITION_REPRESENTATION(#30,#36);
#30 = PRODUCT_DEFINITION_SHAPE('','',#31);
#31 = PRODUCT_DEFINITION('design','',#32,#35);
#32 = PRODUCT_DEFINITION_FORMATION('','',#33);
#33 = PRODUCT('outer_upper_hinge_pin','outer_upper_hinge_pin','',(#34));
#34 = PRODUCT_CONTEXT('',#2,'mechanical');
#35 = PRODUCT_DEFINITION_CONTEXT('part definition',#2,'design');
#36 = ADVANCED_BREP_SHAPE_REPRESENTATION('',(#11,#37),#595);
#37 = MANIFOLD_SOLID_BREP('',#38);
#38 = CLOSED_SHELL('',(#39,#127,#131,#166,#564,#568));
#39 = ADVANCED_FACE('',(#40),#54,.T.);
#40 = FACE_BOUND('',#41,.F.);
#41 = EDGE_LOOP('',(#42,#72,#99,#100));
#42 = ORIENTED_EDGE('',*,*,#43,.T.);
#43 = EDGE_CURVE('',#44,#46,#48,.T.);
#44 = VERTEX_POINT('',#45);
#45 = CARTESIAN_POINT('',(-81.,812.,-67.));
#46 = VERTEX_POINT('',#47);
#47 = CARTESIAN_POINT('',(-75.,812.,-67.));
#48 = SEAM_CURVE('',#49,(#53,#65),.PCURVE_S1.);
#49 = LINE('',#50,#51);
#50 = CARTESIAN_POINT('',(-81.,812.,-67.));
#51 = VECTOR('',#52,1.);
#52 = DIRECTION('',(1.,0.,0.));
#53 = PCURVE('',#54,#59);
#54 = CYLINDRICAL_SURFACE('',#55,13.);
#55 = AXIS2_PLACEMENT_3D('',#56,#57,#58);
#56 = CARTESIAN_POINT('',(-81.,812.,-80.));
#57 = DIRECTION('',(-1.,-0.,0.));
#58 = DIRECTION('',(0.,0.,1.));
#59 = DEFINITIONAL_REPRESENTATION('',(#60),#64);
#60 = LINE('',#61,#62);
#61 = CARTESIAN_POINT('',(-0.,0.));
#62 = VECTOR('',#63,1.);
#63 = DIRECTION('',(-0.,-1.));
#64 = ( GEOMETRIC_REPRESENTATION_CONTEXT(2) 
PARAMETRIC_REPRESENTATION_CONTEXT() REPRESENTATION_CONTEXT('2D SPACE',''
  ) );
#65 = PCURVE('',#54,#66);
#66 = DEFINITIONAL_REPRESENTATION('',(#67),#71);
#67 = LINE('',#68,#69);
#68 = CARTESIAN_POINT('',(-6.28318530718,0.));
#69 = VECTOR('',#70,1.);
#70 = DIRECTION('',(-0.,-1.));
#71 = ( GEOMETRIC_REPRESENTATION_CONTEXT(2) 
PARAMETRIC_REPRESENTATION_CONTEXT() REPRESENTATION_CONTEXT('2D SPACE',''
  ) );
#72 = ORIENTED_EDGE('',*,*,#73,.T.);
#73 = EDGE_CURVE('',#46,#46,#74,.T.);
#74 = SURFACE_CURVE('',#75,(#80,#87),.PCURVE_S1.);
#75 = CIRCLE('',#76,13.);
#76 = AXIS2_PLACEMENT_3D('',#77,#78,#79);
#77 = CARTESIAN_POINT('',(-75.,812.,-80.));
#78 = DIRECTION('',(1.,0.,-0.));
#79 = DIRECTION('',(0.,0.,1.));
#80 = PCURVE('',#54,#81);
#81 = DEFINITIONAL_REPRESENTATION('',(#82),#86);
#82 = LINE('',#83,#84);
#83 = CARTESIAN_POINT('',(-0.,-6.));
#84 = VECTOR('',#85,1.);
#85 = DIRECTION('',(-1.,0.));
#86 = ( GEOMETRIC_REPRESENTATION_CONTEXT(2) 
PARAMETRIC_REPRESENTATION_CONTEXT() REPRESENTATION_CONTEXT('2D SPACE',''
  ) );
#87 = PCURVE('',#88,#93);
#88 = PLANE('',#89);
#89 = AXIS2_PLACEMENT_3D('',#90,#91,#92);
#90 = CARTESIAN_POINT('',(-75.,812.,-80.));
#91 = DIRECTION('',(1.,0.,0.));
#92 = DIRECTION('',(-0.,0.,1.));
#93 = DEFINITIONAL_REPRESENTATION('',(#94),#98);
#94 = CIRCLE('',#95,13.);
#95 = AXIS2_PLACEMENT_2D('',#96,#97);
#96 = CARTESIAN_POINT('',(-1.42108547152E-14,1.136868377216E-13));
#97 = DIRECTION('',(1.,0.));
#98 = ( GEOMETRIC_REPRESENTATION_CONTEXT(2) 
PARAMETRIC_REPRESENTATION_CONTEXT() REPRESENTATION_CONTEXT('2D SPACE',''
  ) );
#99 = ORIENTED_EDGE('',*,*,#43,.F.);
#100 = ORIENTED_EDGE('',*,*,#101,.F.);
#101 = EDGE_CURVE('',#44,#44,#102,.T.);
#102 = SURFACE_CURVE('',#103,(#108,#115),.PCURVE_S1.);
#103 = CIRCLE('',#104,13.);
#104 = AXIS2_PLACEMENT_3D('',#105,#106,#107);
#105 = CARTESIAN_POINT('',(-81.,812.,-80.));
#106 = DIRECTION('',(1.,0.,-0.));
#107 = DIRECTION('',(0.,0.,1.));
#108 = PCURVE('',#54,#109);
#109 = DEFINITIONAL_REPRESENTATION('',(#110),#114);
#110 = LINE('',#111,#112);
#111 = CARTESIAN_POINT('',(-0.,0.));
#112 = VECTOR('',#113,1.);
#113 = DIRECTION('',(-1.,0.));
#114 = ( GEOMETRIC_REPRESENTATION_CONTEXT(2) 
PARAMETRIC_REPRESENTATION_CONTEXT() REPRESENTATION_CONTEXT('2D SPACE',''
  ) );
#115 = PCURVE('',#116,#121);
#116 = PLANE('',#117);
#117 = AXIS2_PLACEMENT_3D('',#118,#119,#120);
#118 = CARTESIAN_POINT('',(-81.,812.,-80.));
#119 = DIRECTION('',(1.,0.,0.));
#120 = DIRECTION('',(-0.,0.,1.));
#121 = DEFINITIONAL_REPRESENTATION('',(#122),#126);
#122 = CIRCLE('',#123,13.);
#123 = AXIS2_PLACEMENT_2D('',#124,#125);
#124 = CARTESIAN_POINT('',(-1.42108547152E-14,1.136868377216E-13));
#125 = DIRECTION('',(1.,0.));
#126 = ( GEOMETRIC_REPRESENTATION_CONTEXT(2) 
PARAMETRIC_REPRESENTATION_CONTEXT() REPRESENTATION_CONTEXT('2D SPACE',''
  ) );
#127 = ADVANCED_FACE('',(#128),#116,.F.);
#128 = FACE_BOUND('',#129,.F.);
#129 = EDGE_LOOP('',(#130));
#130 = ORIENTED_EDGE('',*,*,#101,.T.);
#131 = ADVANCED_FACE('',(#132,#135),#88,.T.);
#132 = FACE_BOUND('',#133,.T.);
#133 = EDGE_LOOP('',(#134));
#134 = ORIENTED_EDGE('',*,*,#73,.T.);
#135 = FACE_BOUND('',#136,.T.);
#136 = EDGE_LOOP('',(#137));
#137 = ORIENTED_EDGE('',*,*,#138,.F.);
#138 = EDGE_CURVE('',#139,#139,#141,.T.);
#139 = VERTEX_POINT('',#140);
#140 = CARTESIAN_POINT('',(-75.,812.,-70.));
#141 = SURFACE_CURVE('',#142,(#147,#154),.PCURVE_S1.);
#142 = CIRCLE('',#143,10.);
#143 = AXIS2_PLACEMENT_3D('',#144,#145,#146);
#144 = CARTESIAN_POINT('',(-75.,812.,-80.));
#145 = DIRECTION('',(1.,0.,-0.));
#146 = DIRECTION('',(0.,0.,1.));
#147 = PCURVE('',#88,#148);
#148 = DEFINITIONAL_REPRESENTATION('',(#149),#153);
#149 = CIRCLE('',#150,10.);
#150 = AXIS2_PLACEMENT_2D('',#151,#152);
#151 = CARTESIAN_POINT('',(-1.42108547152E-14,1.136868377216E-13));
#152 = DIRECTION('',(1.,0.));
#153 = ( GEOMETRIC_REPRESENTATION_CONTEXT(2) 
PARAMETRIC_REPRESENTATION_CONTEXT() REPRESENTATION_CONTEXT('2D SPACE',''
  ) );
#154 = PCURVE('',#155,#160);
#155 = CYLINDRICAL_SURFACE('',#156,10.);
#156 = AXIS2_PLACEMENT_3D('',#157,#158,#159);
#157 = CARTESIAN_POINT('',(-75.,812.,-80.));
#158 = DIRECTION('',(-1.,-0.,0.));
#159 = DIRECTION('',(0.,0.,1.));
#160 = DEFINITIONAL_REPRESENTATION('',(#161),#165);
#161 = LINE('',#162,#163);
#162 = CARTESIAN_POINT('',(-0.,0.));
#163 = VECTOR('',#164,1.);
#164 = DIRECTION('',(-1.,0.));
#165 = ( GEOMETRIC_REPRESENTATION_CONTEXT(2) 
PARAMETRIC_REPRESENTATION_CONTEXT() REPRESENTATION_CONTEXT('2D SPACE',''
  ) );
#166 = ADVANCED_FACE('',(#167,#221,#395),#155,.T.);
#167 = FACE_BOUND('',#168,.F.);
#168 = EDGE_LOOP('',(#169,#170,#193,#220));
#169 = ORIENTED_EDGE('',*,*,#138,.F.);
#170 = ORIENTED_EDGE('',*,*,#171,.T.);
#171 = EDGE_CURVE('',#139,#172,#174,.T.);
#172 = VERTEX_POINT('',#173);
#173 = CARTESIAN_POINT('',(75.,812.,-70.));
#174 = SEAM_CURVE('',#175,(#179,#186),.PCURVE_S1.);
#175 = LINE('',#176,#177);
#176 = CARTESIAN_POINT('',(-75.,812.,-70.));
#177 = VECTOR('',#178,1.);
#178 = DIRECTION('',(1.,0.,0.));
#179 = PCURVE('',#155,#180);
#180 = DEFINITIONAL_REPRESENTATION('',(#181),#185);
#181 = LINE('',#182,#183);
#182 = CARTESIAN_POINT('',(-6.28318530718,0.));
#183 = VECTOR('',#184,1.);
#184 = DIRECTION('',(-0.,-1.));
#185 = ( GEOMETRIC_REPRESENTATION_CONTEXT(2) 
PARAMETRIC_REPRESENTATION_CONTEXT() REPRESENTATION_CONTEXT('2D SPACE',''
  ) );
#186 = PCURVE('',#155,#187);
#187 = DEFINITIONAL_REPRESENTATION('',(#188),#192);
#188 = LINE('',#189,#190);
#189 = CARTESIAN_POINT('',(-0.,0.));
#190 = VECTOR('',#191,1.);
#191 = DIRECTION('',(-0.,-1.));
#192 = ( GEOMETRIC_REPRESENTATION_CONTEXT(2) 
PARAMETRIC_REPRESENTATION_CONTEXT() REPRESENTATION_CONTEXT('2D SPACE',''
  ) );
#193 = ORIENTED_EDGE('',*,*,#194,.T.);
#194 = EDGE_CURVE('',#172,#172,#195,.T.);
#195 = SURFACE_CURVE('',#196,(#201,#208),.PCURVE_S1.);
#196 = CIRCLE('',#197,10.);
#197 = AXIS2_PLACEMENT_3D('',#198,#199,#200);
#198 = CARTESIAN_POINT('',(75.,812.,-80.));
#199 = DIRECTION('',(1.,0.,-0.));
#200 = DIRECTION('',(0.,0.,1.));
#201 = PCURVE('',#155,#202);
#202 = DEFINITIONAL_REPRESENTATION('',(#203),#207);
#203 = LINE('',#204,#205);
#204 = CARTESIAN_POINT('',(-0.,-150.));
#205 = VECTOR('',#206,1.);
#206 = DIRECTION('',(-1.,0.));
#207 = ( GEOMETRIC_REPRESENTATION_CONTEXT(2) 
PARAMETRIC_REPRESENTATION_CONTEXT() REPRESENTATION_CONTEXT('2D SPACE',''
  ) );
#208 = PCURVE('',#209,#214);
#209 = PLANE('',#210);
#210 = AXIS2_PLACEMENT_3D('',#211,#212,#213);
#211 = CARTESIAN_POINT('',(75.,812.,-80.));
#212 = DIRECTION('',(1.,0.,0.));
#213 = DIRECTION('',(-0.,0.,1.));
#214 = DEFINITIONAL_REPRESENTATION('',(#215),#219);
#215 = CIRCLE('',#216,10.);
#216 = AXIS2_PLACEMENT_2D('',#217,#218);
#217 = CARTESIAN_POINT('',(0.,0.));
#218 = DIRECTION('',(1.,0.));
#219 = ( GEOMETRIC_REPRESENTATION_CONTEXT(2) 
PARAMETRIC_REPRESENTATION_CONTEXT() REPRESENTATION_CONTEXT('2D SPACE',''
  ) );
#220 = ORIENTED_EDGE('',*,*,#171,.F.);
#221 = FACE_BOUND('',#222,.F.);
#222 = EDGE_LOOP('',(#223));
#223 = ORIENTED_EDGE('',*,*,#224,.F.);
#224 = EDGE_CURVE('',#225,#225,#227,.T.);
#225 = VERTEX_POINT('',#226);
#226 = CARTESIAN_POINT('',(68.,802.20204102886,-78.));
#227 = SURFACE_CURVE('',#228,(#280,#335),.PCURVE_S1.);
#228 = B_SPLINE_CURVE_WITH_KNOTS('',8,(#229,#230,#231,#232,#233,#234,
    #235,#236,#237,#238,#239,#240,#241,#242,#243,#244,#245,#246,#247,
    #248,#249,#250,#251,#252,#253,#254,#255,#256,#257,#258,#259,#260,
    #261,#262,#263,#264,#265,#266,#267,#268,#269,#270,#271,#272,#273,
    #274,#275,#276,#277,#278,#279),.UNSPECIFIED.,.T.,.F.,(9,7,7,7,7,7,7,
    9),(0.,0.154164471428,0.286814553895,0.423216065529,0.57825930229,
    0.706185388593,0.827889919665,1.),.UNSPECIFIED.);
#229 = CARTESIAN_POINT('',(68.,802.20204102886,-78.));
#230 = CARTESIAN_POINT('',(68.209479891461,802.20204102886,-78.));
#231 = CARTESIAN_POINT('',(68.418653254556,802.19692273597,
    -78.02507557042));
#232 = CARTESIAN_POINT('',(68.625761263041,802.1867113173,
    -78.07509670134));
#233 = CARTESIAN_POINT('',(68.82889370769,802.17169090185,
    -78.15052148934));
#234 = CARTESIAN_POINT('',(69.025656391032,802.1524273851,
    -78.25218117125));
#235 = CARTESIAN_POINT('',(69.212951585605,802.12988884933,
    -78.38115161555));
#236 = CARTESIAN_POINT('',(69.386661723571,802.10557846691,
    -78.53855707704));
#237 = CARTESIAN_POINT('',(69.673848907067,802.06095808237,
    -78.88570674759));
#238 = CARTESIAN_POINT('',(69.797402837127,802.03977792771,
    -79.07398074911));
#239 = CARTESIAN_POINT('',(69.900963573419,802.02022007113,
    -79.28712177722));
#240 = CARTESIAN_POINT('',(69.976606954026,802.00486476443,
    -79.51990956654));
#241 = CARTESIAN_POINT('',(70.019135498363,801.99602027015,
    -79.76529289379));
#242 = CARTESIAN_POINT('',(70.02605105608,801.99473431848,-80.0153233935
    ));
#243 = CARTESIAN_POINT('',(69.997640645797,802.00064759173,
    -80.26184783481));
#244 = CARTESIAN_POINT('',(69.874981746172,802.02443810617,
    -80.73957270772));
#245 = CARTESIAN_POINT('',(69.781011530984,802.04223901273,
    -80.96190169017));
#246 = CARTESIAN_POINT('',(69.661731234528,802.06375599741,
    -81.16190702564));
#247 = CARTESIAN_POINT('',(69.522556667337,802.08688076927,
    -81.33842900935));
#248 = CARTESIAN_POINT('',(69.368145999842,802.10978959788,
    -81.49110525195));
#249 = CARTESIAN_POINT('',(69.202561250403,802.13106870824,
    -81.62010411442));
#250 = CARTESIAN_POINT('',(69.029343800457,802.14971177887,
    -81.72599473193));
#251 = CARTESIAN_POINT('',(68.649475811374,802.18260281221,
    -81.90474703916));
#252 = CARTESIAN_POINT('',(68.437989933281,802.19620454262,
    -81.97276430701));
#253 = CARTESIAN_POINT('',(68.220471137862,802.2048179191,
    -82.01360758997));
#254 = CARTESIAN_POINT('',(67.999999999999,802.2077655253,
    -82.02722704715));
#255 = CARTESIAN_POINT('',(67.779528862137,802.2048179191,
    -82.01360758997));
#256 = CARTESIAN_POINT('',(67.562010066719,802.19620454262,
    -81.97276430701));
#257 = CARTESIAN_POINT('',(67.350524188628,802.18260281221,
    -81.90474703917));
#258 = CARTESIAN_POINT('',(66.981703037045,802.15066827405,
    -81.73119297907));
#259 = CARTESIAN_POINT('',(66.819341349219,802.13340393903,
    -81.63334627304));
#260 = CARTESIAN_POINT('',(66.663656155427,802.11382327326,
    -81.51544493877));
#261 = CARTESIAN_POINT('',(66.517351593555,802.0927163772,
    -81.37696577316));
#262 = CARTESIAN_POINT('',(66.383585045325,802.07117304972,
    -81.21761797474));
#263 = CARTESIAN_POINT('',(66.266040597232,802.05060390443,
    -81.03745735963));
#264 = CARTESIAN_POINT('',(66.169062861918,802.03268096285,
    -80.83709086752));
#265 = CARTESIAN_POINT('',(66.030172640214,802.00621187294,
    -80.40963071871));
#266 = CARTESIAN_POINT('',(65.986764496012,801.99743332196,
    -80.18724143687));
#267 = CARTESIAN_POINT('',(65.972322337558,801.99430762726,
    -79.95699701179));
#268 = CARTESIAN_POINT('',(65.988762659269,801.99770490011,
    -79.72595564373));
#269 = CARTESIAN_POINT('',(66.035398111994,802.00739161554,
    -79.50138567333));
#270 = CARTESIAN_POINT('',(66.109013078128,802.02193256909,
    -79.29011703472));
#271 = CARTESIAN_POINT('',(66.20381392649,802.03932456049,
    -79.09778692803));
#272 = CARTESIAN_POINT('',(66.463409442465,802.08341521798,
    -78.68872984928));
#273 = CARTESIAN_POINT('',(66.646216977416,802.11188289148,
    -78.48656143832));
#274 = CARTESIAN_POINT('',(66.849918894157,802.13946223553,
    -78.32132460172));
#275 = CARTESIAN_POINT('',(67.067885919088,802.16356271885,
    -78.19143944688));
#276 = CARTESIAN_POINT('',(67.29524979571,802.18257932662,
    -78.09534698477));
#277 = CARTESIAN_POINT('',(67.528321876931,802.19555274458,
    -78.03178504706));
#278 = CARTESIAN_POINT('',(67.764153667243,802.20204102886,-78.));
#279 = CARTESIAN_POINT('',(68.,802.20204102886,-78.));
#280 = PCURVE('',#155,#281);
#281 = DEFINITIONAL_REPRESENTATION('',(#282),#334);
#282 = B_SPLINE_CURVE_WITH_KNOTS('',8,(#283,#284,#285,#286,#287,#288,
    #289,#290,#291,#292,#293,#294,#295,#296,#297,#298,#299,#300,#301,
    #302,#303,#304,#305,#306,#307,#308,#309,#310,#311,#312,#313,#314,
    #315,#316,#317,#318,#319,#320,#321,#322,#323,#324,#325,#326,#327,
    #328,#329,#330,#331,#332,#333),.UNSPECIFIED.,.T.,.F.,(9,7,7,7,7,7,7,
    9),(0.,0.154164471428,0.286814553895,0.423216065529,0.57825930229,
    0.706185388593,0.827889919665,1.),.UNSPECIFIED.);
#283 = CARTESIAN_POINT('',(-1.369438406005,-143.));
#284 = CARTESIAN_POINT('',(-1.369438406005,-143.2094798914));
#285 = CARTESIAN_POINT('',(-1.371997668267,-143.4186532545));
#286 = CARTESIAN_POINT('',(-1.377102940088,-143.625761263));
#287 = CARTESIAN_POINT('',(-1.384793437175,-143.8288937076));
#288 = CARTESIAN_POINT('',(-1.395139319116,-144.025656391));
#289 = CARTESIAN_POINT('',(-1.408228630473,-144.2129515856));
#290 = CARTESIAN_POINT('',(-1.424150658298,-144.3866617235));
#291 = CARTESIAN_POINT('',(-1.459151211505,-144.673848907));
#292 = CARTESIAN_POINT('',(-1.478094993743,-144.7974028371));
#293 = CARTESIAN_POINT('',(-1.499491042766,-144.9009635734));
#294 = CARTESIAN_POINT('',(-1.522804104305,-144.976606954));
#295 = CARTESIAN_POINT('',(-1.547335340151,-145.0191354983));
#296 = CARTESIAN_POINT('',(-1.572321124428,-145.026051056));
#297 = CARTESIAN_POINT('',(-1.596972452765,-144.9976406457));
#298 = CARTESIAN_POINT('',(-1.644804141295,-144.8749817461));
#299 = CARTESIAN_POINT('',(-1.667098035864,-144.7810115309));
#300 = CARTESIAN_POINT('',(-1.687202670666,-144.6617312345));
#301 = CARTESIAN_POINT('',(-1.70499829364,-144.5225566673));
#302 = CARTESIAN_POINT('',(-1.72043347901,-144.3681459998));
#303 = CARTESIAN_POINT('',(-1.733506293222,-144.2025612504));
#304 = CARTESIAN_POINT('',(-1.744257924837,-144.0293438004));
#305 = CARTESIAN_POINT('',(-1.762433239805,-143.6494758113));
#306 = CARTESIAN_POINT('',(-1.769368807226,-143.4379899332));
#307 = CARTESIAN_POINT('',(-1.773542965218,-143.2204711378));
#308 = CARTESIAN_POINT('',(-1.77493660175,-142.9999999999));
#309 = CARTESIAN_POINT('',(-1.773542965218,-142.7795288621));
#310 = CARTESIAN_POINT('',(-1.769368807226,-142.5620100667));
#311 = CARTESIAN_POINT('',(-1.762433239805,-142.3505241886));
#312 = CARTESIAN_POINT('',(-1.74478647622,-141.981703037));
#313 = CARTESIAN_POINT('',(-1.73485091575,-141.8193413492));
#314 = CARTESIAN_POINT('',(-1.722900389188,-141.6636561554));
#315 = CARTESIAN_POINT('',(-1.708895129441,-141.5173515935));
#316 = CARTESIAN_POINT('',(-1.692820803948,-141.3835850453));
#317 = CARTESIAN_POINT('',(-1.674695883472,-141.2660405972));
#318 = CARTESIAN_POINT('',(-1.654586782365,-141.1690628619));
#319 = CARTESIAN_POINT('',(-1.611758895242,-141.0301726402));
#320 = CARTESIAN_POINT('',(-1.589508239508,-140.986764496));
#321 = CARTESIAN_POINT('',(-1.566494539134,-140.9723223375));
#322 = CARTESIAN_POINT('',(-1.543406562747,-140.9887626592));
#323 = CARTESIAN_POINT('',(-1.520944234006,-141.0353981119));
#324 = CARTESIAN_POINT('',(-1.499775594445,-141.1090130781));
#325 = CARTESIAN_POINT('',(-1.480466972732,-141.2038139264));
#326 = CARTESIAN_POINT('',(-1.43932433308,-141.4634094424));
#327 = CARTESIAN_POINT('',(-1.418918849244,-141.6462169774));
#328 = CARTESIAN_POINT('',(-1.40217338729,-141.8499188941));
#329 = CARTESIAN_POINT('',(-1.388965045264,-142.067885919));
#330 = CARTESIAN_POINT('',(-1.379169733235,-142.2952497957));
#331 = CARTESIAN_POINT('',(-1.37268245019,-142.5283218769));
#332 = CARTESIAN_POINT('',(-1.369438406005,-142.7641536672));
#333 = CARTESIAN_POINT('',(-1.369438406005,-143.));
#334 = ( GEOMETRIC_REPRESENTATION_CONTEXT(2) 
PARAMETRIC_REPRESENTATION_CONTEXT() REPRESENTATION_CONTEXT('2D SPACE',''
  ) );
#335 = PCURVE('',#336,#341);
#336 = CYLINDRICAL_SURFACE('',#337,2.);
#337 = AXIS2_PLACEMENT_3D('',#338,#339,#340);
#338 = CARTESIAN_POINT('',(68.,792.,-80.));
#339 = DIRECTION('',(-0.,-1.,-0.));
#340 = DIRECTION('',(0.,0.,1.));
#341 = DEFINITIONAL_REPRESENTATION('',(#342),#394);
#342 = B_SPLINE_CURVE_WITH_KNOTS('',8,(#343,#344,#345,#346,#347,#348,
    #349,#350,#351,#352,#353,#354,#355,#356,#357,#358,#359,#360,#361,
    #362,#363,#364,#365,#366,#367,#368,#369,#370,#371,#372,#373,#374,
    #375,#376,#377,#378,#379,#380,#381,#382,#383,#384,#385,#386,#387,
    #388,#389,#390,#391,#392,#393),.UNSPECIFIED.,.F.,.F.,(9,7,7,7,7,7,7,
    9),(0.,0.154164471428,0.286814553895,0.423216065529,0.57825930229,
    0.706185388593,0.827889919665,1.),.UNSPECIFIED.);
#343 = CARTESIAN_POINT('',(0.,-10.20204102886));
#344 = CARTESIAN_POINT('',(-0.104739945731,-10.20204102886));
#345 = CARTESIAN_POINT('',(-0.209326289277,-10.19692273597));
#346 = CARTESIAN_POINT('',(-0.31463243627,-10.1867113173));
#347 = CARTESIAN_POINT('',(-0.421428453769,-10.17169090185));
#348 = CARTESIAN_POINT('',(-0.530473257238,-10.1524273851));
#349 = CARTESIAN_POINT('',(-0.642555479645,-10.12988884933));
#350 = CARTESIAN_POINT('',(-0.758561104293,-10.10557846691));
#351 = CARTESIAN_POINT('',(-0.983832813637,-10.06095808237));
#352 = CARTESIAN_POINT('',(-1.095744963337,-10.03977792771));
#353 = CARTESIAN_POINT('',(-1.212586816455,-10.02022007113));
#354 = CARTESIAN_POINT('',(-1.332627460544,-10.00486476444));
#355 = CARTESIAN_POINT('',(-1.454650140221,-9.996020270154));
#356 = CARTESIAN_POINT('',(-1.577615237422,-9.994734318489));
#357 = CARTESIAN_POINT('',(-1.700537927473,-10.00064759173));
#358 = CARTESIAN_POINT('',(-1.947148075202,-10.02443810617));
#359 = CARTESIAN_POINT('',(-2.066505600324,-10.04223901273));
#360 = CARTESIAN_POINT('',(-2.181172721869,-10.06375599741));
#361 = CARTESIAN_POINT('',(-2.291775168155,-10.08688076927));
#362 = CARTESIAN_POINT('',(-2.398795832926,-10.10978959788));
#363 = CARTESIAN_POINT('',(-2.5026188541,-10.13106870824));
#364 = CARTESIAN_POINT('',(-2.60352703072,-10.14971177887));
#365 = CARTESIAN_POINT('',(-2.813438962535,-10.18260281221));
#366 = CARTESIAN_POINT('',(-2.923598180687,-10.19620454261));
#367 = CARTESIAN_POINT('',(-3.032823638669,-10.2048179191));
#368 = CARTESIAN_POINT('',(-3.14159265359,-10.2077655253));
#369 = CARTESIAN_POINT('',(-3.250361668512,-10.2048179191));
#370 = CARTESIAN_POINT('',(-3.359587126492,-10.19620454261));
#371 = CARTESIAN_POINT('',(-3.469746344644,-10.18260281221));
#372 = CARTESIAN_POINT('',(-3.673553884758,-10.15066827405));
#373 = CARTESIAN_POINT('',(-3.767838606964,-10.13340393903));
#374 = CARTESIAN_POINT('',(-3.864566301668,-10.11382327326));
#375 = CARTESIAN_POINT('',(-3.964043901878,-10.0927163772));
#376 = CARTESIAN_POINT('',(-4.066641969556,-10.07117304972));
#377 = CARTESIAN_POINT('',(-4.172800442439,-10.05060390443));
#378 = CARTESIAN_POINT('',(-4.283064698532,-10.03268096285));
#379 = CARTESIAN_POINT('',(-4.507793797953,-10.00621187294));
#380 = CARTESIAN_POINT('',(-4.620253335609,-9.997433321965));
#381 = CARTESIAN_POINT('',(-4.733975400095,-9.99430762726));
#382 = CARTESIAN_POINT('',(-4.847763023026,-9.997704900112));
#383 = CARTESIAN_POINT('',(-4.960491109399,-10.00739161554));
#384 = CARTESIAN_POINT('',(-5.070941740331,-10.02193256909));
#385 = CARTESIAN_POINT('',(-5.177535190259,-10.03932456049));
#386 = CARTESIAN_POINT('',(-5.419773464275,-10.08341521798));
#387 = CARTESIAN_POINT('',(-5.554098691298,-10.11188289148));
#388 = CARTESIAN_POINT('',(-5.682781087498,-10.13946223553));
#389 = CARTESIAN_POINT('',(-5.807129954919,-10.16356271885));
#390 = CARTESIAN_POINT('',(-5.928313334642,-10.18257932662));
#391 = CARTESIAN_POINT('',(-6.047345827811,-10.19555274458));
#392 = CARTESIAN_POINT('',(-6.165262140801,-10.20204102886));
#393 = CARTESIAN_POINT('',(-6.28318530718,-10.20204102886));
#394 = ( GEOMETRIC_REPRESENTATION_CONTEXT(2) 
PARAMETRIC_REPRESENTATION_CONTEXT() REPRESENTATION_CONTEXT('2D SPACE',''
  ) );
#395 = FACE_BOUND('',#396,.F.);
#396 = EDGE_LOOP('',(#397));
#397 = ORIENTED_EDGE('',*,*,#398,.T.);
#398 = EDGE_CURVE('',#399,#399,#401,.T.);
#399 = VERTEX_POINT('',#400);
#400 = CARTESIAN_POINT('',(68.,821.79795897113,-78.));
#401 = SURFACE_CURVE('',#402,(#454,#509),.PCURVE_S1.);
#402 = B_SPLINE_CURVE_WITH_KNOTS('',8,(#403,#404,#405,#406,#407,#408,
    #409,#410,#411,#412,#413,#414,#415,#416,#417,#418,#419,#420,#421,
    #422,#423,#424,#425,#426,#427,#428,#429,#430,#431,#432,#433,#434,
    #435,#436,#437,#438,#439,#440,#441,#442,#443,#444,#445,#446,#447,
    #448,#449,#450,#451,#452,#453),.UNSPECIFIED.,.T.,.F.,(9,7,7,7,7,7,7,
    9),(0.,0.154164471479,0.28681455399,0.423216065668,0.57825930215,
    0.706185388496,0.827889919608,1.),.UNSPECIFIED.);
#403 = CARTESIAN_POINT('',(68.,821.79795897113,-78.));
#404 = CARTESIAN_POINT('',(68.209479891461,821.79795897113,-78.));
#405 = CARTESIAN_POINT('',(68.418653254556,821.80307726402,
    -78.02507557042));
#406 = CARTESIAN_POINT('',(68.62576126304,821.81328868269,
    -78.07509670134));
#407 = CARTESIAN_POINT('',(68.82889370769,821.82830909814,
    -78.15052148934));
#408 = CARTESIAN_POINT('',(69.025656391033,821.84757261489,
    -78.25218117125));
#409 = CARTESIAN_POINT('',(69.212951585604,821.87011115066,
    -78.38115161555));
#410 = CARTESIAN_POINT('',(69.386661723571,821.89442153308,
    -78.53855707704));
#411 = CARTESIAN_POINT('',(69.673848907067,821.93904191762,
    -78.88570674759));
#412 = CARTESIAN_POINT('',(69.797402837127,821.96022207228,
    -79.07398074911));
#413 = CARTESIAN_POINT('',(69.90096357342,821.97977992886,
    -79.28712177721));
#414 = CARTESIAN_POINT('',(69.976606954025,821.99513523556,
    -79.51990956654));
#415 = CARTESIAN_POINT('',(70.019135498364,822.00397972984,
    -79.76529289379));
#416 = CARTESIAN_POINT('',(70.02605105608,822.00526568151,-80.0153233935
    ));
#417 = CARTESIAN_POINT('',(69.997640645797,821.99935240826,
    -80.26184783481));
#418 = CARTESIAN_POINT('',(69.874981746172,821.97556189382,
    -80.73957270772));
#419 = CARTESIAN_POINT('',(69.781011530984,821.95776098726,
    -80.96190169017));
#420 = CARTESIAN_POINT('',(69.661731234528,821.93624400259,
    -81.16190702564));
#421 = CARTESIAN_POINT('',(69.522556667337,821.91311923072,
    -81.33842900935));
#422 = CARTESIAN_POINT('',(69.368145999843,821.89021040211,
    -81.49110525195));
#423 = CARTESIAN_POINT('',(69.202561250402,821.86893129175,
    -81.62010411442));
#424 = CARTESIAN_POINT('',(69.029343800457,821.85028822112,
    -81.72599473193));
#425 = CARTESIAN_POINT('',(68.649475811804,821.81739718782,
    -81.90474703896));
#426 = CARTESIAN_POINT('',(68.437989932607,821.80379545733,
    -81.97276430728));
#427 = CARTESIAN_POINT('',(68.220471138152,821.79518208089,
    -82.01360758999));
#428 = CARTESIAN_POINT('',(68.,821.79223447473,-82.02722704692));
#429 = CARTESIAN_POINT('',(67.779528861847,821.79518208089,
    -82.01360758999));
#430 = CARTESIAN_POINT('',(67.562010067393,821.80379545733,
    -81.97276430728));
#431 = CARTESIAN_POINT('',(67.350524188198,821.81739718782,
    -81.90474703896));
#432 = CARTESIAN_POINT('',(66.981703037045,821.84933172594,
    -81.73119297907));
#433 = CARTESIAN_POINT('',(66.81934134922,821.86659606096,
    -81.63334627304));
#434 = CARTESIAN_POINT('',(66.663656155427,821.88617672673,
    -81.51544493877));
#435 = CARTESIAN_POINT('',(66.517351593555,821.90728362279,
    -81.37696577316));
#436 = CARTESIAN_POINT('',(66.383585045325,821.92882695027,
    -81.21761797474));
#437 = CARTESIAN_POINT('',(66.266040597232,821.94939609556,
    -81.03745735963));
#438 = CARTESIAN_POINT('',(66.169062861918,821.96731903715,
    -80.83709086752));
#439 = CARTESIAN_POINT('',(66.030172640214,821.99378812705,
    -80.40963071871));
#440 = CARTESIAN_POINT('',(65.986764496012,822.00256667803,
    -80.18724143687));
#441 = CARTESIAN_POINT('',(65.972322337558,822.00569237274,
    -79.95699701179));
#442 = CARTESIAN_POINT('',(65.988762659269,822.00229509988,
    -79.72595564373));
#443 = CARTESIAN_POINT('',(66.035398111994,821.99260838445,
    -79.50138567333));
#444 = CARTESIAN_POINT('',(66.109013078128,821.9780674309,
    -79.29011703472));
#445 = CARTESIAN_POINT('',(66.20381392649,821.9606754395,-79.09778692803
    ));
#446 = CARTESIAN_POINT('',(66.463409442465,821.91658478201,
    -78.68872984928));
#447 = CARTESIAN_POINT('',(66.646216977415,821.88811710851,
    -78.48656143832));
#448 = CARTESIAN_POINT('',(66.849918894159,821.86053776446,
    -78.32132460172));
#449 = CARTESIAN_POINT('',(67.067885919085,821.83643728114,
    -78.19143944688));
#450 = CARTESIAN_POINT('',(67.295249795712,821.81742067337,
    -78.09534698477));
#451 = CARTESIAN_POINT('',(67.528321876929,821.80444725542,
    -78.03178504706));
#452 = CARTESIAN_POINT('',(67.764153667243,821.79795897113,-78.));
#453 = CARTESIAN_POINT('',(68.,821.79795897113,-78.));
#454 = PCURVE('',#155,#455);
#455 = DEFINITIONAL_REPRESENTATION('',(#456),#508);
#456 = B_SPLINE_CURVE_WITH_KNOTS('',8,(#457,#458,#459,#460,#461,#462,
    #463,#464,#465,#466,#467,#468,#469,#470,#471,#472,#473,#474,#475,
    #476,#477,#478,#479,#480,#481,#482,#483,#484,#485,#486,#487,#488,
    #489,#490,#491,#492,#493,#494,#495,#496,#497,#498,#499,#500,#501,
    #502,#503,#504,#505,#506,#507),.UNSPECIFIED.,.T.,.F.,(9,7,7,7,7,7,7,
    9),(0.,0.154164471479,0.28681455399,0.423216065668,0.57825930215,
    0.706185388496,0.827889919608,1.),.UNSPECIFIED.);
#457 = CARTESIAN_POINT('',(-4.913746901175,-143.));
#458 = CARTESIAN_POINT('',(-4.913746901175,-143.2094798914));
#459 = CARTESIAN_POINT('',(-4.911187638913,-143.4186532545));
#460 = CARTESIAN_POINT('',(-4.906082367092,-143.625761263));
#461 = CARTESIAN_POINT('',(-4.898391870005,-143.8288937076));
#462 = CARTESIAN_POINT('',(-4.888045988064,-144.025656391));
#463 = CARTESIAN_POINT('',(-4.874956676706,-144.2129515856));
#464 = CARTESIAN_POINT('',(-4.859034648881,-144.3866617235));
#465 = CARTESIAN_POINT('',(-4.824034095675,-144.673848907));
#466 = CARTESIAN_POINT('',(-4.805090313436,-144.7974028371));
#467 = CARTESIAN_POINT('',(-4.783694264414,-144.9009635734));
#468 = CARTESIAN_POINT('',(-4.760381202875,-144.976606954));
#469 = CARTESIAN_POINT('',(-4.735849967028,-145.0191354983));
#470 = CARTESIAN_POINT('',(-4.710864182751,-145.026051056));
#471 = CARTESIAN_POINT('',(-4.686212854415,-144.9976406457));
#472 = CARTESIAN_POINT('',(-4.638381165884,-144.8749817461));
#473 = CARTESIAN_POINT('',(-4.616087271316,-144.7810115309));
#474 = CARTESIAN_POINT('',(-4.595982636514,-144.6617312345));
#475 = CARTESIAN_POINT('',(-4.578187013539,-144.5225566673));
#476 = CARTESIAN_POINT('',(-4.562751828169,-144.3681459998));
#477 = CARTESIAN_POINT('',(-4.549679013957,-144.2025612504));
#478 = CARTESIAN_POINT('',(-4.538927382342,-144.0293438004));
#479 = CARTESIAN_POINT('',(-4.520752067395,-143.6494758118));
#480 = CARTESIAN_POINT('',(-4.513816499926,-143.4379899326));
#481 = CARTESIAN_POINT('',(-4.509642341959,-143.2204711381));
#482 = CARTESIAN_POINT('',(-4.508248705453,-143.));
#483 = CARTESIAN_POINT('',(-4.509642341959,-142.7795288618));
#484 = CARTESIAN_POINT('',(-4.513816499926,-142.5620100673));
#485 = CARTESIAN_POINT('',(-4.520752067395,-142.3505241881));
#486 = CARTESIAN_POINT('',(-4.538398830959,-141.981703037));
#487 = CARTESIAN_POINT('',(-4.548334391429,-141.8193413492));
#488 = CARTESIAN_POINT('',(-4.560284917991,-141.6636561554));
#489 = CARTESIAN_POINT('',(-4.574290177738,-141.5173515935));
#490 = CARTESIAN_POINT('',(-4.590364503231,-141.3835850453));
#491 = CARTESIAN_POINT('',(-4.608489423708,-141.2660405972));
#492 = CARTESIAN_POINT('',(-4.628598524814,-141.1690628619));
#493 = CARTESIAN_POINT('',(-4.671426411937,-141.0301726402));
#494 = CARTESIAN_POINT('',(-4.693677067671,-140.986764496));
#495 = CARTESIAN_POINT('',(-4.716690768046,-140.9723223375));
#496 = CARTESIAN_POINT('',(-4.739778744433,-140.9887626592));
#497 = CARTESIAN_POINT('',(-4.762241073173,-141.0353981119));
#498 = CARTESIAN_POINT('',(-4.783409712734,-141.1090130781));
#499 = CARTESIAN_POINT('',(-4.802718334447,-141.2038139264));
#500 = CARTESIAN_POINT('',(-4.8438609741,-141.4634094424));
#501 = CARTESIAN_POINT('',(-4.864266457935,-141.6462169774));
#502 = CARTESIAN_POINT('',(-4.881011919889,-141.8499188941));
#503 = CARTESIAN_POINT('',(-4.894220261916,-142.067885919));
#504 = CARTESIAN_POINT('',(-4.904015573945,-142.2952497957));
#505 = CARTESIAN_POINT('',(-4.91050285699,-142.5283218769));
#506 = CARTESIAN_POINT('',(-4.913746901175,-142.7641536672));
#507 = CARTESIAN_POINT('',(-4.913746901175,-143.));
#508 = ( GEOMETRIC_REPRESENTATION_CONTEXT(2) 
PARAMETRIC_REPRESENTATION_CONTEXT() REPRESENTATION_CONTEXT('2D SPACE',''
  ) );
#509 = PCURVE('',#336,#510);
#510 = DEFINITIONAL_REPRESENTATION('',(#511),#563);
#511 = B_SPLINE_CURVE_WITH_KNOTS('',8,(#512,#513,#514,#515,#516,#517,
    #518,#519,#520,#521,#522,#523,#524,#525,#526,#527,#528,#529,#530,
    #531,#532,#533,#534,#535,#536,#537,#538,#539,#540,#541,#542,#543,
    #544,#545,#546,#547,#548,#549,#550,#551,#552,#553,#554,#555,#556,
    #557,#558,#559,#560,#561,#562),.UNSPECIFIED.,.F.,.F.,(9,7,7,7,7,7,7,
    9),(0.,0.154164471479,0.28681455399,0.423216065668,0.57825930215,
    0.706185388496,0.827889919608,1.),.UNSPECIFIED.);
#512 = CARTESIAN_POINT('',(0.,-29.79795897113));
#513 = CARTESIAN_POINT('',(-0.104739945731,-29.79795897113));
#514 = CARTESIAN_POINT('',(-0.209326289277,-29.80307726402));
#515 = CARTESIAN_POINT('',(-0.31463243627,-29.81328868269));
#516 = CARTESIAN_POINT('',(-0.421428453769,-29.82830909814));
#517 = CARTESIAN_POINT('',(-0.530473257238,-29.84757261489));
#518 = CARTESIAN_POINT('',(-0.642555479645,-29.87011115066));
#519 = CARTESIAN_POINT('',(-0.758561104293,-29.89442153308));
#520 = CARTESIAN_POINT('',(-0.983832813637,-29.93904191762));
#521 = CARTESIAN_POINT('',(-1.095744963337,-29.96022207228));
#522 = CARTESIAN_POINT('',(-1.212586816454,-29.97977992886));
#523 = CARTESIAN_POINT('',(-1.332627460545,-29.99513523555));
#524 = CARTESIAN_POINT('',(-1.454650140219,-30.00397972984));
#525 = CARTESIAN_POINT('',(-1.577615237422,-30.00526568151));
#526 = CARTESIAN_POINT('',(-1.700537927473,-29.99935240826));
#527 = CARTESIAN_POINT('',(-1.947148075202,-29.97556189382));
#528 = CARTESIAN_POINT('',(-2.066505600324,-29.95776098726));
#529 = CARTESIAN_POINT('',(-2.181172721869,-29.93624400259));
#530 = CARTESIAN_POINT('',(-2.291775168155,-29.91311923072));
#531 = CARTESIAN_POINT('',(-2.398795832926,-29.89021040211));
#532 = CARTESIAN_POINT('',(-2.502618854101,-29.86893129175));
#533 = CARTESIAN_POINT('',(-2.60352703072,-29.85028822112));
#534 = CARTESIAN_POINT('',(-2.813438962297,-29.81739718782));
#535 = CARTESIAN_POINT('',(-2.923598181071,-29.80379545733));
#536 = CARTESIAN_POINT('',(-3.032823638483,-29.79518208089));
#537 = CARTESIAN_POINT('',(-3.14159265359,-29.79223447473));
#538 = CARTESIAN_POINT('',(-3.250361668697,-29.79518208089));
#539 = CARTESIAN_POINT('',(-3.359587126108,-29.80379545733));
#540 = CARTESIAN_POINT('',(-3.469746344882,-29.81739718782));
#541 = CARTESIAN_POINT('',(-3.673553884758,-29.84933172594));
#542 = CARTESIAN_POINT('',(-3.767838606964,-29.86659606096));
#543 = CARTESIAN_POINT('',(-3.864566301668,-29.88617672673));
#544 = CARTESIAN_POINT('',(-3.964043901878,-29.90728362279));
#545 = CARTESIAN_POINT('',(-4.066641969555,-29.92882695027));
#546 = CARTESIAN_POINT('',(-4.172800442439,-29.94939609556));
#547 = CARTESIAN_POINT('',(-4.283064698532,-29.96731903715));
#548 = CARTESIAN_POINT('',(-4.507793797953,-29.99378812705));
#549 = CARTESIAN_POINT('',(-4.620253335609,-30.00256667803));
#550 = CARTESIAN_POINT('',(-4.733975400093,-30.00569237274));
#551 = CARTESIAN_POINT('',(-4.847763023028,-30.00229509988));
#552 = CARTESIAN_POINT('',(-4.960491109398,-29.99260838445));
#553 = CARTESIAN_POINT('',(-5.070941740331,-29.9780674309));
#554 = CARTESIAN_POINT('',(-5.177535190259,-29.9606754395));
#555 = CARTESIAN_POINT('',(-5.419773464275,-29.91658478201));
#556 = CARTESIAN_POINT('',(-5.554098691298,-29.88811710851));
#557 = CARTESIAN_POINT('',(-5.682781087498,-29.86053776446));
#558 = CARTESIAN_POINT('',(-5.807129954919,-29.83643728114));
#559 = CARTESIAN_POINT('',(-5.928313334642,-29.81742067337));
#560 = CARTESIAN_POINT('',(-6.047345827811,-29.80444725542));
#561 = CARTESIAN_POINT('',(-6.165262140801,-29.79795897113));
#562 = CARTESIAN_POINT('',(-6.28318530718,-29.79795897113));
#563 = ( GEOMETRIC_REPRESENTATION_CONTEXT(2) 
PARAMETRIC_REPRESENTATION_CONTEXT() REPRESENTATION_CONTEXT('2D SPACE',''
  ) );
#564 = ADVANCED_FACE('',(#565),#209,.T.);
#565 = FACE_BOUND('',#566,.T.);
#566 = EDGE_LOOP('',(#567));
#567 = ORIENTED_EDGE('',*,*,#194,.T.);
#568 = ADVANCED_FACE('',(#569),#336,.F.);
#569 = FACE_BOUND('',#570,.T.);
#570 = EDGE_LOOP('',(#571,#572,#593,#594));
#571 = ORIENTED_EDGE('',*,*,#224,.F.);
#572 = ORIENTED_EDGE('',*,*,#573,.T.);
#573 = EDGE_CURVE('',#225,#399,#574,.T.);
#574 = SEAM_CURVE('',#575,(#579,#586),.PCURVE_S1.);
#575 = LINE('',#576,#577);
#576 = CARTESIAN_POINT('',(68.,792.,-78.));
#577 = VECTOR('',#578,1.);
#578 = DIRECTION('',(0.,1.,0.));
#579 = PCURVE('',#336,#580);
#580 = DEFINITIONAL_REPRESENTATION('',(#581),#585);
#581 = LINE('',#582,#583);
#582 = CARTESIAN_POINT('',(-6.28318530718,0.));
#583 = VECTOR('',#584,1.);
#584 = DIRECTION('',(-0.,-1.));
#585 = ( GEOMETRIC_REPRESENTATION_CONTEXT(2) 
PARAMETRIC_REPRESENTATION_CONTEXT() REPRESENTATION_CONTEXT('2D SPACE',''
  ) );
#586 = PCURVE('',#336,#587);
#587 = DEFINITIONAL_REPRESENTATION('',(#588),#592);
#588 = LINE('',#589,#590);
#589 = CARTESIAN_POINT('',(-0.,0.));
#590 = VECTOR('',#591,1.);
#591 = DIRECTION('',(-0.,-1.));
#592 = ( GEOMETRIC_REPRESENTATION_CONTEXT(2) 
PARAMETRIC_REPRESENTATION_CONTEXT() REPRESENTATION_CONTEXT('2D SPACE',''
  ) );
#593 = ORIENTED_EDGE('',*,*,#398,.T.);
#594 = ORIENTED_EDGE('',*,*,#573,.F.);
#595 = ( GEOMETRIC_REPRESENTATION_CONTEXT(3) 
GLOBAL_UNCERTAINTY_ASSIGNED_CONTEXT((#599)) GLOBAL_UNIT_ASSIGNED_CONTEXT
((#596,#597,#598)) REPRESENTATION_CONTEXT('Context #1',
  '3D Context with UNIT and UNCERTAINTY') );
#596 = ( LENGTH_UNIT() NAMED_UNIT(*) SI_UNIT(.MILLI.,.METRE.) );
#597 = ( NAMED_UNIT(*) PLANE_ANGLE_UNIT() SI_UNIT($,.RADIAN.) );
#598 = ( NAMED_UNIT(*) SI_UNIT($,.STERADIAN.) SOLID_ANGLE_UNIT() );
#599 = UNCERTAINTY_MEASURE_WITH_UNIT(LENGTH_MEASURE(1.E-07),#596,
  'distance_accuracy_value','confusion accuracy');
#600 = CONTEXT_DEPENDENT_SHAPE_REPRESENTATION(#601,#603);
#601 = ( REPRESENTATION_RELATIONSHIP('','',#36,#10) 
REPRESENTATION_RELATIONSHIP_WITH_TRANSFORMATION(#602) 
SHAPE_REPRESENTATION_RELATIONSHIP() );
#602 = ITEM_DEFINED_TRANSFORMATION('','',#11,#15);
#603 = PRODUCT_DEFINITION_SHAPE('Placement','Placement of an item',#604
  );
#604 = NEXT_ASSEMBLY_USAGE_OCCURRENCE('17','outer_upper_hinge_pin','',#5
  ,#31,$);
#605 = PRODUCT_RELATED_PRODUCT_CATEGORY('part',$,(#33));
#606 = SHAPE_DEFINITION_REPRESENTATION(#607,#613);
#607 = PRODUCT_DEFINITION_SHAPE('','',#608);
#608 = PRODUCT_DEFINITION('design','',#609,#612);
#609 = PRODUCT_DEFINITION_FORMATION('','',#610);
#610 = PRODUCT('outer_lower_hinge_pin','outer_lower_hinge_pin','',(#611)
  );
#611 = PRODUCT_CONTEXT('',#2,'mechanical');
#612 = PRODUCT_DEFINITION_CONTEXT('part definition',#2,'design');
#613 = ADVANCED_BREP_SHAPE_REPRESENTATION('',(#11,#614),#1172);
#614 = MANIFOLD_SOLID_BREP('',#615);
#615 = CLOSED_SHELL('',(#616,#704,#708,#743,#1141,#1145));
#616 = ADVANCED_FACE('',(#617),#631,.T.);
#617 = FACE_BOUND('',#618,.F.);
#618 = EDGE_LOOP('',(#619,#649,#676,#677));
#619 = ORIENTED_EDGE('',*,*,#620,.T.);
#620 = EDGE_CURVE('',#621,#623,#625,.T.);
#621 = VERTEX_POINT('',#622);
#622 = CARTESIAN_POINT('',(-81.,812.,-407.));
#623 = VERTEX_POINT('',#624);
#624 = CARTESIAN_POINT('',(-75.,812.,-407.));
#625 = SEAM_CURVE('',#626,(#630,#642),.PCURVE_S1.);
#626 = LINE('',#627,#628);
#627 = CARTESIAN_POINT('',(-81.,812.,-407.));
#628 = VECTOR('',#629,1.);
#629 = DIRECTION('',(1.,0.,0.));
#630 = PCURVE('',#631,#636);
#631 = CYLINDRICAL_SURFACE('',#632,13.);
#632 = AXIS2_PLACEMENT_3D('',#633,#634,#635);
#633 = CARTESIAN_POINT('',(-81.,812.,-420.));
#634 = DIRECTION('',(-1.,-0.,0.));
#635 = DIRECTION('',(0.,0.,1.));
#636 = DEFINITIONAL_REPRESENTATION('',(#637),#641);
#637 = LINE('',#638,#639);
#638 = CARTESIAN_POINT('',(-0.,0.));
#639 = VECTOR('',#640,1.);
#640 = DIRECTION('',(-0.,-1.));
#641 = ( GEOMETRIC_REPRESENTATION_CONTEXT(2) 
PARAMETRIC_REPRESENTATION_CONTEXT() REPRESENTATION_CONTEXT('2D SPACE',''
  ) );
#642 = PCURVE('',#631,#643);
#643 = DEFINITIONAL_REPRESENTATION('',(#644),#648);
#644 = LINE('',#645,#646);
#645 = CARTESIAN_POINT('',(-6.28318530718,0.));
#646 = VECTOR('',#647,1.);
#647 = DIRECTION('',(-0.,-1.));
#648 = ( GEOMETRIC_REPRESENTATION_CONTEXT(2) 
PARAMETRIC_REPRESENTATION_CONTEXT() REPRESENTATION_CONTEXT('2D SPACE',''
  ) );
#649 = ORIENTED_EDGE('',*,*,#650,.T.);
#650 = EDGE_CURVE('',#623,#623,#651,.T.);
#651 = SURFACE_CURVE('',#652,(#657,#664),.PCURVE_S1.);
#652 = CIRCLE('',#653,13.);
#653 = AXIS2_PLACEMENT_3D('',#654,#655,#656);
#654 = CARTESIAN_POINT('',(-75.,812.,-420.));
#655 = DIRECTION('',(1.,0.,-0.));
#656 = DIRECTION('',(0.,0.,1.));
#657 = PCURVE('',#631,#658);
#658 = DEFINITIONAL_REPRESENTATION('',(#659),#663);
#659 = LINE('',#660,#661);
#660 = CARTESIAN_POINT('',(-0.,-6.));
#661 = VECTOR('',#662,1.);
#662 = DIRECTION('',(-1.,0.));
#663 = ( GEOMETRIC_REPRESENTATION_CONTEXT(2) 
PARAMETRIC_REPRESENTATION_CONTEXT() REPRESENTATION_CONTEXT('2D SPACE',''
  ) );
#664 = PCURVE('',#665,#670);
#665 = PLANE('',#666);
#666 = AXIS2_PLACEMENT_3D('',#667,#668,#669);
#667 = CARTESIAN_POINT('',(-75.,812.,-420.));
#668 = DIRECTION('',(1.,0.,0.));
#669 = DIRECTION('',(-0.,0.,1.));
#670 = DEFINITIONAL_REPRESENTATION('',(#671),#675);
#671 = CIRCLE('',#672,13.);
#672 = AXIS2_PLACEMENT_2D('',#673,#674);
#673 = CARTESIAN_POINT('',(-5.684341886081E-14,1.136868377216E-13));
#674 = DIRECTION('',(1.,0.));
#675 = ( GEOMETRIC_REPRESENTATION_CONTEXT(2) 
PARAMETRIC_REPRESENTATION_CONTEXT() REPRESENTATION_CONTEXT('2D SPACE',''
  ) );
#676 = ORIENTED_EDGE('',*,*,#620,.F.);
#677 = ORIENTED_EDGE('',*,*,#678,.F.);
#678 = EDGE_CURVE('',#621,#621,#679,.T.);
#679 = SURFACE_CURVE('',#680,(#685,#692),.PCURVE_S1.);
#680 = CIRCLE('',#681,13.);
#681 = AXIS2_PLACEMENT_3D('',#682,#683,#684);
#682 = CARTESIAN_POINT('',(-81.,812.,-420.));
#683 = DIRECTION('',(1.,0.,-0.));
#684 = DIRECTION('',(0.,0.,1.));
#685 = PCURVE('',#631,#686);
#686 = DEFINITIONAL_REPRESENTATION('',(#687),#691);
#687 = LINE('',#688,#689);
#688 = CARTESIAN_POINT('',(-0.,0.));
#689 = VECTOR('',#690,1.);
#690 = DIRECTION('',(-1.,0.));
#691 = ( GEOMETRIC_REPRESENTATION_CONTEXT(2) 
PARAMETRIC_REPRESENTATION_CONTEXT() REPRESENTATION_CONTEXT('2D SPACE',''
  ) );
#692 = PCURVE('',#693,#698);
#693 = PLANE('',#694);
#694 = AXIS2_PLACEMENT_3D('',#695,#696,#697);
#695 = CARTESIAN_POINT('',(-81.,812.,-420.));
#696 = DIRECTION('',(1.,0.,0.));
#697 = DIRECTION('',(-0.,0.,1.));
#698 = DEFINITIONAL_REPRESENTATION('',(#699),#703);
#699 = CIRCLE('',#700,13.);
#700 = AXIS2_PLACEMENT_2D('',#701,#702);
#701 = CARTESIAN_POINT('',(-5.684341886081E-14,1.136868377216E-13));
#702 = DIRECTION('',(1.,0.));
#703 = ( GEOMETRIC_REPRESENTATION_CONTEXT(2) 
PARAMETRIC_REPRESENTATION_CONTEXT() REPRESENTATION_CONTEXT('2D SPACE',''
  ) );
#704 = ADVANCED_FACE('',(#705),#693,.F.);
#705 = FACE_BOUND('',#706,.F.);
#706 = EDGE_LOOP('',(#707));
#707 = ORIENTED_EDGE('',*,*,#678,.T.);
#708 = ADVANCED_FACE('',(#709,#712),#665,.T.);
#709 = FACE_BOUND('',#710,.T.);
#710 = EDGE_LOOP('',(#711));
#711 = ORIENTED_EDGE('',*,*,#650,.T.);
#712 = FACE_BOUND('',#713,.T.);
#713 = EDGE_LOOP('',(#714));
#714 = ORIENTED_EDGE('',*,*,#715,.F.);
#715 = EDGE_CURVE('',#716,#716,#718,.T.);
#716 = VERTEX_POINT('',#717);
#717 = CARTESIAN_POINT('',(-75.,812.,-410.));
#718 = SURFACE_CURVE('',#719,(#724,#731),.PCURVE_S1.);
#719 = CIRCLE('',#720,10.);
#720 = AXIS2_PLACEMENT_3D('',#721,#722,#723);
#721 = CARTESIAN_POINT('',(-75.,812.,-420.));
#722 = DIRECTION('',(1.,0.,-0.));
#723 = DIRECTION('',(0.,0.,1.));
#724 = PCURVE('',#665,#725);
#725 = DEFINITIONAL_REPRESENTATION('',(#726),#730);
#726 = CIRCLE('',#727,10.);
#727 = AXIS2_PLACEMENT_2D('',#728,#729);
#728 = CARTESIAN_POINT('',(-5.684341886081E-14,1.136868377216E-13));
#729 = DIRECTION('',(1.,0.));
#730 = ( GEOMETRIC_REPRESENTATION_CONTEXT(2) 
PARAMETRIC_REPRESENTATION_CONTEXT() REPRESENTATION_CONTEXT('2D SPACE',''
  ) );
#731 = PCURVE('',#732,#737);
#732 = CYLINDRICAL_SURFACE('',#733,10.);
#733 = AXIS2_PLACEMENT_3D('',#734,#735,#736);
#734 = CARTESIAN_POINT('',(-75.,812.,-420.));
#735 = DIRECTION('',(-1.,-0.,0.));
#736 = DIRECTION('',(0.,0.,1.));
#737 = DEFINITIONAL_REPRESENTATION('',(#738),#742);
#738 = LINE('',#739,#740);
#739 = CARTESIAN_POINT('',(-0.,0.));
#740 = VECTOR('',#741,1.);
#741 = DIRECTION('',(-1.,0.));
#742 = ( GEOMETRIC_REPRESENTATION_CONTEXT(2) 
PARAMETRIC_REPRESENTATION_CONTEXT() REPRESENTATION_CONTEXT('2D SPACE',''
  ) );
#743 = ADVANCED_FACE('',(#744,#798,#972),#732,.T.);
#744 = FACE_BOUND('',#745,.F.);
#745 = EDGE_LOOP('',(#746,#747,#770,#797));
#746 = ORIENTED_EDGE('',*,*,#715,.F.);
#747 = ORIENTED_EDGE('',*,*,#748,.T.);
#748 = EDGE_CURVE('',#716,#749,#751,.T.);
#749 = VERTEX_POINT('',#750);
#750 = CARTESIAN_POINT('',(75.,812.,-410.));
#751 = SEAM_CURVE('',#752,(#756,#763),.PCURVE_S1.);
#752 = LINE('',#753,#754);
#753 = CARTESIAN_POINT('',(-75.,812.,-410.));
#754 = VECTOR('',#755,1.);
#755 = DIRECTION('',(1.,0.,0.));
#756 = PCURVE('',#732,#757);
#757 = DEFINITIONAL_REPRESENTATION('',(#758),#762);
#758 = LINE('',#759,#760);
#759 = CARTESIAN_POINT('',(-6.28318530718,0.));
#760 = VECTOR('',#761,1.);
#761 = DIRECTION('',(-0.,-1.));
#762 = ( GEOMETRIC_REPRESENTATION_CONTEXT(2) 
PARAMETRIC_REPRESENTATION_CONTEXT() REPRESENTATION_CONTEXT('2D SPACE',''
  ) );
#763 = PCURVE('',#732,#764);
#764 = DEFINITIONAL_REPRESENTATION('',(#765),#769);
#765 = LINE('',#766,#767);
#766 = CARTESIAN_POINT('',(-0.,0.));
#767 = VECTOR('',#768,1.);
#768 = DIRECTION('',(-0.,-1.));
#769 = ( GEOMETRIC_REPRESENTATION_CONTEXT(2) 
PARAMETRIC_REPRESENTATION_CONTEXT() REPRESENTATION_CONTEXT('2D SPACE',''
  ) );
#770 = ORIENTED_EDGE('',*,*,#771,.T.);
#771 = EDGE_CURVE('',#749,#749,#772,.T.);
#772 = SURFACE_CURVE('',#773,(#778,#785),.PCURVE_S1.);
#773 = CIRCLE('',#774,10.);
#774 = AXIS2_PLACEMENT_3D('',#775,#776,#777);
#775 = CARTESIAN_POINT('',(75.,812.,-420.));
#776 = DIRECTION('',(1.,0.,-0.));
#777 = DIRECTION('',(0.,0.,1.));
#778 = PCURVE('',#732,#779);
#779 = DEFINITIONAL_REPRESENTATION('',(#780),#784);
#780 = LINE('',#781,#782);
#781 = CARTESIAN_POINT('',(-0.,-150.));
#782 = VECTOR('',#783,1.);
#783 = DIRECTION('',(-1.,0.));
#784 = ( GEOMETRIC_REPRESENTATION_CONTEXT(2) 
PARAMETRIC_REPRESENTATION_CONTEXT() REPRESENTATION_CONTEXT('2D SPACE',''
  ) );
#785 = PCURVE('',#786,#791);
#786 = PLANE('',#787);
#787 = AXIS2_PLACEMENT_3D('',#788,#789,#790);
#788 = CARTESIAN_POINT('',(75.,812.,-420.));
#789 = DIRECTION('',(1.,0.,0.));
#790 = DIRECTION('',(-0.,0.,1.));
#791 = DEFINITIONAL_REPRESENTATION('',(#792),#796);
#792 = CIRCLE('',#793,10.);
#793 = AXIS2_PLACEMENT_2D('',#794,#795);
#794 = CARTESIAN_POINT('',(0.,0.));
#795 = DIRECTION('',(1.,0.));
#796 = ( GEOMETRIC_REPRESENTATION_CONTEXT(2) 
PARAMETRIC_REPRESENTATION_CONTEXT() REPRESENTATION_CONTEXT('2D SPACE',''
  ) );
#797 = ORIENTED_EDGE('',*,*,#748,.F.);
#798 = FACE_BOUND('',#799,.F.);
#799 = EDGE_LOOP('',(#800));
#800 = ORIENTED_EDGE('',*,*,#801,.T.);
#801 = EDGE_CURVE('',#802,#802,#804,.T.);
#802 = VERTEX_POINT('',#803);
#803 = CARTESIAN_POINT('',(68.,821.79795897113,-418.));
#804 = SURFACE_CURVE('',#805,(#857,#912),.PCURVE_S1.);
#805 = B_SPLINE_CURVE_WITH_KNOTS('',8,(#806,#807,#808,#809,#810,#811,
    #812,#813,#814,#815,#816,#817,#818,#819,#820,#821,#822,#823,#824,
    #825,#826,#827,#828,#829,#830,#831,#832,#833,#834,#835,#836,#837,
    #838,#839,#840,#841,#842,#843,#844,#845,#846,#847,#848,#849,#850,
    #851,#852,#853,#854,#855,#856),.UNSPECIFIED.,.T.,.F.,(9,7,7,7,7,7,7,
    9),(0.,0.154164471479,0.286814553989,0.423216065667,0.57825930215,
    0.706185388495,0.827889919607,1.),.UNSPECIFIED.);
#806 = CARTESIAN_POINT('',(68.,821.79795897113,-418.));
#807 = CARTESIAN_POINT('',(68.209479891461,821.79795897113,-418.));
#808 = CARTESIAN_POINT('',(68.418653254556,821.80307726402,
    -418.0250755704));
#809 = CARTESIAN_POINT('',(68.625761263041,821.81328868269,
    -418.0750967013));
#810 = CARTESIAN_POINT('',(68.82889370769,821.82830909814,
    -418.1505214893));
#811 = CARTESIAN_POINT('',(69.025656391032,821.84757261489,
    -418.2521811712));
#812 = CARTESIAN_POINT('',(69.212951585604,821.87011115066,
    -418.3811516155));
#813 = CARTESIAN_POINT('',(69.386661723571,821.89442153308,
    -418.538557077));
#814 = CARTESIAN_POINT('',(69.673848907067,821.93904191762,
    -418.8857067475));
#815 = CARTESIAN_POINT('',(69.797402837127,821.96022207228,
    -419.0739807491));
#816 = CARTESIAN_POINT('',(69.900963573421,821.97977992886,
    -419.2871217772));
#817 = CARTESIAN_POINT('',(69.976606954024,821.99513523556,
    -419.5199095665));
#818 = CARTESIAN_POINT('',(70.019135498364,822.00397972984,
    -419.7652928937));
#819 = CARTESIAN_POINT('',(70.02605105608,822.00526568151,
    -420.0153233935));
#820 = CARTESIAN_POINT('',(69.997640645797,821.99935240826,
    -420.2618478348));
#821 = CARTESIAN_POINT('',(69.874981746172,821.97556189382,
    -420.7395727077));
#822 = CARTESIAN_POINT('',(69.781011530984,821.95776098726,
    -420.9619016901));
#823 = CARTESIAN_POINT('',(69.661731234528,821.93624400259,
    -421.1619070256));
#824 = CARTESIAN_POINT('',(69.522556667337,821.91311923072,
    -421.3384290093));
#825 = CARTESIAN_POINT('',(69.368145999843,821.89021040211,
    -421.4911052519));
#826 = CARTESIAN_POINT('',(69.202561250403,821.86893129175,
    -421.6201041144));
#827 = CARTESIAN_POINT('',(69.029343800457,821.85028822112,
    -421.7259947319));
#828 = CARTESIAN_POINT('',(68.649475811803,821.81739718782,
    -421.9047470389));
#829 = CARTESIAN_POINT('',(68.437989932605,821.80379545733,
    -421.9727643072));
#830 = CARTESIAN_POINT('',(68.220471138152,821.79518208089,
    -422.0136075899));
#831 = CARTESIAN_POINT('',(68.,821.79223447473,-422.0272270469));
#832 = CARTESIAN_POINT('',(67.779528861848,821.79518208089,
    -422.0136075899));
#833 = CARTESIAN_POINT('',(67.562010067396,821.80379545733,
    -421.9727643072));
#834 = CARTESIAN_POINT('',(67.350524188199,821.81739718782,
    -421.9047470389));
#835 = CARTESIAN_POINT('',(66.981703037045,821.84933172594,
    -421.731192979));
#836 = CARTESIAN_POINT('',(66.819341349219,821.86659606096,
    -421.633346273));
#837 = CARTESIAN_POINT('',(66.663656155427,821.88617672673,
    -421.5154449387));
#838 = CARTESIAN_POINT('',(66.517351593555,821.90728362279,
    -421.3769657731));
#839 = CARTESIAN_POINT('',(66.383585045325,821.92882695027,
    -421.2176179747));
#840 = CARTESIAN_POINT('',(66.266040597232,821.94939609556,
    -421.0374573596));
#841 = CARTESIAN_POINT('',(66.169062861918,821.96731903715,
    -420.8370908675));
#842 = CARTESIAN_POINT('',(66.030172640214,821.99378812705,
    -420.4096307187));
#843 = CARTESIAN_POINT('',(65.986764496012,822.00256667803,
    -420.1872414368));
#844 = CARTESIAN_POINT('',(65.972322337558,822.00569237274,
    -419.9569970117));
#845 = CARTESIAN_POINT('',(65.988762659269,822.00229509988,
    -419.7259556437));
#846 = CARTESIAN_POINT('',(66.035398111994,821.99260838445,
    -419.5013856733));
#847 = CARTESIAN_POINT('',(66.109013078128,821.9780674309,
    -419.2901170347));
#848 = CARTESIAN_POINT('',(66.20381392649,821.9606754395,-419.097786928)
  );
#849 = CARTESIAN_POINT('',(66.463409442465,821.91658478201,
    -418.6887298492));
#850 = CARTESIAN_POINT('',(66.646216977415,821.88811710851,
    -418.4865614383));
#851 = CARTESIAN_POINT('',(66.84991889416,821.86053776446,
    -418.3213246017));
#852 = CARTESIAN_POINT('',(67.067885919085,821.83643728114,
    -418.1914394468));
#853 = CARTESIAN_POINT('',(67.295249795712,821.81742067337,
    -418.0953469847));
#854 = CARTESIAN_POINT('',(67.52832187693,821.80444725542,-418.031785047
    ));
#855 = CARTESIAN_POINT('',(67.764153667243,821.79795897113,-418.));
#856 = CARTESIAN_POINT('',(68.,821.79795897113,-418.));
#857 = PCURVE('',#732,#858);
#858 = DEFINITIONAL_REPRESENTATION('',(#859),#911);
#859 = B_SPLINE_CURVE_WITH_KNOTS('',8,(#860,#861,#862,#863,#864,#865,
    #866,#867,#868,#869,#870,#871,#872,#873,#874,#875,#876,#877,#878,
    #879,#880,#881,#882,#883,#884,#885,#886,#887,#888,#889,#890,#891,
    #892,#893,#894,#895,#896,#897,#898,#899,#900,#901,#902,#903,#904,
    #905,#906,#907,#908,#909,#910),.UNSPECIFIED.,.T.,.F.,(9,7,7,7,7,7,7,
    9),(0.,0.154164471479,0.286814553989,0.423216065667,0.57825930215,
    0.706185388495,0.827889919607,1.),.UNSPECIFIED.);
#860 = CARTESIAN_POINT('',(-4.913746901175,-143.));
#861 = CARTESIAN_POINT('',(-4.913746901175,-143.2094798914));
#862 = CARTESIAN_POINT('',(-4.911187638913,-143.4186532545));
#863 = CARTESIAN_POINT('',(-4.906082367092,-143.625761263));
#864 = CARTESIAN_POINT('',(-4.898391870005,-143.8288937076));
#865 = CARTESIAN_POINT('',(-4.888045988064,-144.025656391));
#866 = CARTESIAN_POINT('',(-4.874956676706,-144.2129515856));
#867 = CARTESIAN_POINT('',(-4.859034648881,-144.3866617235));
#868 = CARTESIAN_POINT('',(-4.824034095675,-144.673848907));
#869 = CARTESIAN_POINT('',(-4.805090313436,-144.7974028371));
#870 = CARTESIAN_POINT('',(-4.783694264414,-144.9009635734));
#871 = CARTESIAN_POINT('',(-4.760381202874,-144.976606954));
#872 = CARTESIAN_POINT('',(-4.735849967029,-145.0191354983));
#873 = CARTESIAN_POINT('',(-4.710864182751,-145.026051056));
#874 = CARTESIAN_POINT('',(-4.686212854415,-144.9976406457));
#875 = CARTESIAN_POINT('',(-4.638381165884,-144.8749817461));
#876 = CARTESIAN_POINT('',(-4.616087271316,-144.7810115309));
#877 = CARTESIAN_POINT('',(-4.595982636513,-144.6617312345));
#878 = CARTESIAN_POINT('',(-4.578187013539,-144.5225566673));
#879 = CARTESIAN_POINT('',(-4.562751828169,-144.3681459998));
#880 = CARTESIAN_POINT('',(-4.549679013957,-144.2025612504));
#881 = CARTESIAN_POINT('',(-4.538927382342,-144.0293438004));
#882 = CARTESIAN_POINT('',(-4.520752067395,-143.6494758118));
#883 = CARTESIAN_POINT('',(-4.513816499926,-143.4379899326));
#884 = CARTESIAN_POINT('',(-4.509642341959,-143.2204711381));
#885 = CARTESIAN_POINT('',(-4.508248705453,-143.));
#886 = CARTESIAN_POINT('',(-4.509642341959,-142.7795288618));
#887 = CARTESIAN_POINT('',(-4.513816499926,-142.5620100673));
#888 = CARTESIAN_POINT('',(-4.520752067395,-142.3505241881));
#889 = CARTESIAN_POINT('',(-4.538398830959,-141.981703037));
#890 = CARTESIAN_POINT('',(-4.548334391429,-141.8193413492));
#891 = CARTESIAN_POINT('',(-4.560284917991,-141.6636561554));
#892 = CARTESIAN_POINT('',(-4.574290177738,-141.5173515935));
#893 = CARTESIAN_POINT('',(-4.590364503232,-141.3835850453));
#894 = CARTESIAN_POINT('',(-4.608489423708,-141.2660405972));
#895 = CARTESIAN_POINT('',(-4.628598524814,-141.1690628619));
#896 = CARTESIAN_POINT('',(-4.671426411937,-141.0301726402));
#897 = CARTESIAN_POINT('',(-4.693677067671,-140.986764496));
#898 = CARTESIAN_POINT('',(-4.716690768046,-140.9723223375));
#899 = CARTESIAN_POINT('',(-4.739778744433,-140.9887626592));
#900 = CARTESIAN_POINT('',(-4.762241073173,-141.0353981119));
#901 = CARTESIAN_POINT('',(-4.783409712734,-141.1090130781));
#902 = CARTESIAN_POINT('',(-4.802718334447,-141.2038139264));
#903 = CARTESIAN_POINT('',(-4.8438609741,-141.4634094424));
#904 = CARTESIAN_POINT('',(-4.864266457935,-141.6462169774));
#905 = CARTESIAN_POINT('',(-4.881011919889,-141.8499188941));
#906 = CARTESIAN_POINT('',(-4.894220261915,-142.067885919));
#907 = CARTESIAN_POINT('',(-4.904015573945,-142.2952497957));
#908 = CARTESIAN_POINT('',(-4.91050285699,-142.5283218769));
#909 = CARTESIAN_POINT('',(-4.913746901175,-142.7641536672));
#910 = CARTESIAN_POINT('',(-4.913746901175,-143.));
#911 = ( GEOMETRIC_REPRESENTATION_CONTEXT(2) 
PARAMETRIC_REPRESENTATION_CONTEXT() REPRESENTATION_CONTEXT('2D SPACE',''
  ) );
#912 = PCURVE('',#913,#918);
#913 = CYLINDRICAL_SURFACE('',#914,2.);
#914 = AXIS2_PLACEMENT_3D('',#915,#916,#917);
#915 = CARTESIAN_POINT('',(68.,792.,-420.));
#916 = DIRECTION('',(-0.,-1.,-0.));
#917 = DIRECTION('',(0.,0.,1.));
#918 = DEFINITIONAL_REPRESENTATION('',(#919),#971);
#919 = B_SPLINE_CURVE_WITH_KNOTS('',8,(#920,#921,#922,#923,#924,#925,
    #926,#927,#928,#929,#930,#931,#932,#933,#934,#935,#936,#937,#938,
    #939,#940,#941,#942,#943,#944,#945,#946,#947,#948,#949,#950,#951,
    #952,#953,#954,#955,#956,#957,#958,#959,#960,#961,#962,#963,#964,
    #965,#966,#967,#968,#969,#970),.UNSPECIFIED.,.F.,.F.,(9,7,7,7,7,7,7,
    9),(0.,0.154164471479,0.286814553989,0.423216065667,0.57825930215,
    0.706185388495,0.827889919607,1.),.UNSPECIFIED.);
#920 = CARTESIAN_POINT('',(0.,-29.79795897113));
#921 = CARTESIAN_POINT('',(-0.104739945731,-29.79795897113));
#922 = CARTESIAN_POINT('',(-0.209326289278,-29.80307726402));
#923 = CARTESIAN_POINT('',(-0.31463243627,-29.81328868269));
#924 = CARTESIAN_POINT('',(-0.421428453769,-29.82830909814));
#925 = CARTESIAN_POINT('',(-0.530473257239,-29.84757261489));
#926 = CARTESIAN_POINT('',(-0.642555479645,-29.87011115066));
#927 = CARTESIAN_POINT('',(-0.758561104293,-29.89442153308));
#928 = CARTESIAN_POINT('',(-0.983832813637,-29.93904191762));
#929 = CARTESIAN_POINT('',(-1.095744963337,-29.96022207228));
#930 = CARTESIAN_POINT('',(-1.212586816455,-29.97977992886));
#931 = CARTESIAN_POINT('',(-1.332627460544,-29.99513523555));
#932 = CARTESIAN_POINT('',(-1.45465014022,-30.00397972984));
#933 = CARTESIAN_POINT('',(-1.577615237422,-30.00526568151));
#934 = CARTESIAN_POINT('',(-1.700537927473,-29.99935240826));
#935 = CARTESIAN_POINT('',(-1.947148075202,-29.97556189382));
#936 = CARTESIAN_POINT('',(-2.066505600324,-29.95776098726));
#937 = CARTESIAN_POINT('',(-2.181172721869,-29.93624400259));
#938 = CARTESIAN_POINT('',(-2.291775168155,-29.91311923072));
#939 = CARTESIAN_POINT('',(-2.398795832926,-29.89021040211));
#940 = CARTESIAN_POINT('',(-2.5026188541,-29.86893129175));
#941 = CARTESIAN_POINT('',(-2.60352703072,-29.85028822112));
#942 = CARTESIAN_POINT('',(-2.813438962298,-29.81739718782));
#943 = CARTESIAN_POINT('',(-2.923598181072,-29.80379545733));
#944 = CARTESIAN_POINT('',(-3.032823638483,-29.79518208089));
#945 = CARTESIAN_POINT('',(-3.14159265359,-29.79223447473));
#946 = CARTESIAN_POINT('',(-3.250361668697,-29.79518208089));
#947 = CARTESIAN_POINT('',(-3.359587126107,-29.80379545733));
#948 = CARTESIAN_POINT('',(-3.469746344881,-29.81739718782));
#949 = CARTESIAN_POINT('',(-3.673553884758,-29.84933172594));
#950 = CARTESIAN_POINT('',(-3.767838606964,-29.86659606096));
#951 = CARTESIAN_POINT('',(-3.864566301668,-29.88617672673));
#952 = CARTESIAN_POINT('',(-3.964043901878,-29.90728362279));
#953 = CARTESIAN_POINT('',(-4.066641969556,-29.92882695027));
#954 = CARTESIAN_POINT('',(-4.172800442439,-29.94939609556));
#955 = CARTESIAN_POINT('',(-4.283064698532,-29.96731903715));
#956 = CARTESIAN_POINT('',(-4.507793797953,-29.99378812705));
#957 = CARTESIAN_POINT('',(-4.620253335609,-30.00256667803));
#958 = CARTESIAN_POINT('',(-4.733975400094,-30.00569237274));
#959 = CARTESIAN_POINT('',(-4.847763023026,-30.00229509988));
#960 = CARTESIAN_POINT('',(-4.960491109399,-29.99260838445));
#961 = CARTESIAN_POINT('',(-5.070941740331,-29.9780674309));
#962 = CARTESIAN_POINT('',(-5.177535190259,-29.9606754395));
#963 = CARTESIAN_POINT('',(-5.419773464276,-29.91658478201));
#964 = CARTESIAN_POINT('',(-5.554098691297,-29.88811710851));
#965 = CARTESIAN_POINT('',(-5.682781087499,-29.86053776446));
#966 = CARTESIAN_POINT('',(-5.807129954917,-29.83643728114));
#967 = CARTESIAN_POINT('',(-5.928313334643,-29.81742067337));
#968 = CARTESIAN_POINT('',(-6.047345827811,-29.80444725542));
#969 = CARTESIAN_POINT('',(-6.165262140801,-29.79795897113));
#970 = CARTESIAN_POINT('',(-6.28318530718,-29.79795897113));
#971 = ( GEOMETRIC_REPRESENTATION_CONTEXT(2) 
PARAMETRIC_REPRESENTATION_CONTEXT() REPRESENTATION_CONTEXT('2D SPACE',''
  ) );
#972 = FACE_BOUND('',#973,.F.);
#973 = EDGE_LOOP('',(#974));
#974 = ORIENTED_EDGE('',*,*,#975,.F.);
#975 = EDGE_CURVE('',#976,#976,#978,.T.);
#976 = VERTEX_POINT('',#977);
#977 = CARTESIAN_POINT('',(68.,802.20204102886,-418.));
#978 = SURFACE_CURVE('',#979,(#1031,#1086),.PCURVE_S1.);
#979 = B_SPLINE_CURVE_WITH_KNOTS('',8,(#980,#981,#982,#983,#984,#985,
    #986,#987,#988,#989,#990,#991,#992,#993,#994,#995,#996,#997,#998,
    #999,#1000,#1001,#1002,#1003,#1004,#1005,#1006,#1007,#1008,#1009,
    #1010,#1011,#1012,#1013,#1014,#1015,#1016,#1017,#1018,#1019,#1020,
    #1021,#1022,#1023,#1024,#1025,#1026,#1027,#1028,#1029,#1030),
  .UNSPECIFIED.,.T.,.F.,(9,7,7,7,7,7,7,9),(0.,0.154164471477,
    0.286814553986,0.423216065663,0.578259302145,0.706185388492,
    0.827889919606,1.),.UNSPECIFIED.);
#980 = CARTESIAN_POINT('',(68.,802.20204102886,-418.));
#981 = CARTESIAN_POINT('',(68.209479891461,802.20204102886,-418.));
#982 = CARTESIAN_POINT('',(68.418653254556,802.19692273597,
    -418.0250755704));
#983 = CARTESIAN_POINT('',(68.625761263041,802.1867113173,
    -418.0750967013));
#984 = CARTESIAN_POINT('',(68.82889370769,802.17169090185,
    -418.1505214893));
#985 = CARTESIAN_POINT('',(69.025656391032,802.1524273851,
    -418.2521811712));
#986 = CARTESIAN_POINT('',(69.212951585604,802.12988884933,
    -418.3811516155));
#987 = CARTESIAN_POINT('',(69.386661723571,802.10557846691,
    -418.538557077));
#988 = CARTESIAN_POINT('',(69.673848907067,802.06095808237,
    -418.8857067475));
#989 = CARTESIAN_POINT('',(69.797402837127,802.03977792771,
    -419.0739807491));
#990 = CARTESIAN_POINT('',(69.90096357342,802.02022007113,
    -419.2871217772));
#991 = CARTESIAN_POINT('',(69.976606954025,802.00486476443,
    -419.5199095665));
#992 = CARTESIAN_POINT('',(70.019135498364,801.99602027015,
    -419.7652928937));
#993 = CARTESIAN_POINT('',(70.02605105608,801.99473431848,
    -420.0153233935));
#994 = CARTESIAN_POINT('',(69.997640645797,802.00064759173,
    -420.2618478348));
#995 = CARTESIAN_POINT('',(69.874981746172,802.02443810617,
    -420.7395727077));
#996 = CARTESIAN_POINT('',(69.781011530984,802.04223901273,
    -420.9619016901));
#997 = CARTESIAN_POINT('',(69.661731234528,802.06375599741,
    -421.1619070256));
#998 = CARTESIAN_POINT('',(69.522556667337,802.08688076927,
    -421.3384290093));
#999 = CARTESIAN_POINT('',(69.368145999842,802.10978959788,
    -421.4911052519));
#1000 = CARTESIAN_POINT('',(69.202561250403,802.13106870824,
    -421.6201041144));
#1001 = CARTESIAN_POINT('',(69.029343800456,802.14971177887,
    -421.7259947319));
#1002 = CARTESIAN_POINT('',(68.649475811801,802.18260281217,
    -421.9047470389));
#1003 = CARTESIAN_POINT('',(68.437989932606,802.19620454266,
    -421.9727643072));
#1004 = CARTESIAN_POINT('',(68.220471138153,802.2048179191,
    -422.0136075899));
#1005 = CARTESIAN_POINT('',(68.000000000001,802.20776552526,
    -422.0272270469));
#1006 = CARTESIAN_POINT('',(67.779528861848,802.2048179191,
    -422.0136075899));
#1007 = CARTESIAN_POINT('',(67.562010067393,802.19620454266,
    -421.9727643072));
#1008 = CARTESIAN_POINT('',(67.350524188196,802.18260281217,
    -421.9047470389));
#1009 = CARTESIAN_POINT('',(66.981703037045,802.15066827405,
    -421.731192979));
#1010 = CARTESIAN_POINT('',(66.819341349219,802.13340393903,
    -421.633346273));
#1011 = CARTESIAN_POINT('',(66.663656155427,802.11382327326,
    -421.5154449387));
#1012 = CARTESIAN_POINT('',(66.517351593555,802.0927163772,
    -421.3769657731));
#1013 = CARTESIAN_POINT('',(66.383585045325,802.07117304972,
    -421.2176179747));
#1014 = CARTESIAN_POINT('',(66.266040597232,802.05060390443,
    -421.0374573596));
#1015 = CARTESIAN_POINT('',(66.169062861918,802.03268096285,
    -420.8370908675));
#1016 = CARTESIAN_POINT('',(66.030172640214,802.00621187294,
    -420.4096307187));
#1017 = CARTESIAN_POINT('',(65.986764496013,801.99743332196,
    -420.1872414368));
#1018 = CARTESIAN_POINT('',(65.972322337557,801.99430762726,
    -419.9569970117));
#1019 = CARTESIAN_POINT('',(65.988762659269,801.99770490011,
    -419.7259556437));
#1020 = CARTESIAN_POINT('',(66.035398111994,802.00739161554,
    -419.5013856733));
#1021 = CARTESIAN_POINT('',(66.109013078128,802.02193256909,
    -419.2901170347));
#1022 = CARTESIAN_POINT('',(66.20381392649,802.03932456049,
    -419.097786928));
#1023 = CARTESIAN_POINT('',(66.463409442465,802.08341521798,
    -418.6887298492));
#1024 = CARTESIAN_POINT('',(66.646216977415,802.11188289148,
    -418.4865614383));
#1025 = CARTESIAN_POINT('',(66.849918894159,802.13946223553,
    -418.3213246017));
#1026 = CARTESIAN_POINT('',(67.067885919085,802.16356271885,
    -418.1914394468));
#1027 = CARTESIAN_POINT('',(67.295249795712,802.18257932662,
    -418.0953469847));
#1028 = CARTESIAN_POINT('',(67.528321876929,802.19555274458,
    -418.031785047));
#1029 = CARTESIAN_POINT('',(67.764153667243,802.20204102886,-418.));
#1030 = CARTESIAN_POINT('',(68.,802.20204102886,-418.));
#1031 = PCURVE('',#732,#1032);
#1032 = DEFINITIONAL_REPRESENTATION('',(#1033),#1085);
#1033 = B_SPLINE_CURVE_WITH_KNOTS('',8,(#1034,#1035,#1036,#1037,#1038,
    #1039,#1040,#1041,#1042,#1043,#1044,#1045,#1046,#1047,#1048,#1049,
    #1050,#1051,#1052,#1053,#1054,#1055,#1056,#1057,#1058,#1059,#1060,
    #1061,#1062,#1063,#1064,#1065,#1066,#1067,#1068,#1069,#1070,#1071,
    #1072,#1073,#1074,#1075,#1076,#1077,#1078,#1079,#1080,#1081,#1082,
    #1083,#1084),.UNSPECIFIED.,.T.,.F.,(9,7,7,7,7,7,7,9),(0.,
    0.154164471477,0.286814553986,0.423216065663,0.578259302145,
    0.706185388492,0.827889919606,1.),.UNSPECIFIED.);
#1034 = CARTESIAN_POINT('',(-1.369438406005,-143.));
#1035 = CARTESIAN_POINT('',(-1.369438406005,-143.2094798914));
#1036 = CARTESIAN_POINT('',(-1.371997668267,-143.4186532545));
#1037 = CARTESIAN_POINT('',(-1.377102940088,-143.625761263));
#1038 = CARTESIAN_POINT('',(-1.384793437175,-143.8288937076));
#1039 = CARTESIAN_POINT('',(-1.395139319116,-144.025656391));
#1040 = CARTESIAN_POINT('',(-1.408228630473,-144.2129515856));
#1041 = CARTESIAN_POINT('',(-1.424150658298,-144.3866617235));
#1042 = CARTESIAN_POINT('',(-1.459151211505,-144.673848907));
#1043 = CARTESIAN_POINT('',(-1.478094993743,-144.7974028371));
#1044 = CARTESIAN_POINT('',(-1.499491042766,-144.9009635734));
#1045 = CARTESIAN_POINT('',(-1.522804104305,-144.976606954));
#1046 = CARTESIAN_POINT('',(-1.547335340151,-145.0191354983));
#1047 = CARTESIAN_POINT('',(-1.572321124429,-145.026051056));
#1048 = CARTESIAN_POINT('',(-1.596972452765,-144.9976406457));
#1049 = CARTESIAN_POINT('',(-1.644804141295,-144.8749817461));
#1050 = CARTESIAN_POINT('',(-1.667098035864,-144.7810115309));
#1051 = CARTESIAN_POINT('',(-1.687202670666,-144.6617312345));
#1052 = CARTESIAN_POINT('',(-1.70499829364,-144.5225566673));
#1053 = CARTESIAN_POINT('',(-1.72043347901,-144.3681459998));
#1054 = CARTESIAN_POINT('',(-1.733506293222,-144.2025612504));
#1055 = CARTESIAN_POINT('',(-1.744257924837,-144.0293438004));
#1056 = CARTESIAN_POINT('',(-1.762433239785,-143.6494758118));
#1057 = CARTESIAN_POINT('',(-1.769368807253,-143.4379899326));
#1058 = CARTESIAN_POINT('',(-1.77354296522,-143.2204711381));
#1059 = CARTESIAN_POINT('',(-1.774936601726,-143.));
#1060 = CARTESIAN_POINT('',(-1.77354296522,-142.7795288618));
#1061 = CARTESIAN_POINT('',(-1.769368807253,-142.5620100673));
#1062 = CARTESIAN_POINT('',(-1.762433239784,-142.3505241881));
#1063 = CARTESIAN_POINT('',(-1.74478647622,-141.981703037));
#1064 = CARTESIAN_POINT('',(-1.73485091575,-141.8193413492));
#1065 = CARTESIAN_POINT('',(-1.722900389188,-141.6636561554));
#1066 = CARTESIAN_POINT('',(-1.708895129441,-141.5173515935));
#1067 = CARTESIAN_POINT('',(-1.692820803948,-141.3835850453));
#1068 = CARTESIAN_POINT('',(-1.674695883472,-141.2660405972));
#1069 = CARTESIAN_POINT('',(-1.654586782365,-141.1690628619));
#1070 = CARTESIAN_POINT('',(-1.611758895242,-141.0301726402));
#1071 = CARTESIAN_POINT('',(-1.589508239509,-140.986764496));
#1072 = CARTESIAN_POINT('',(-1.566494539133,-140.9723223375));
#1073 = CARTESIAN_POINT('',(-1.543406562747,-140.9887626592));
#1074 = CARTESIAN_POINT('',(-1.520944234006,-141.0353981119));
#1075 = CARTESIAN_POINT('',(-1.499775594445,-141.1090130781));
#1076 = CARTESIAN_POINT('',(-1.480466972732,-141.2038139264));
#1077 = CARTESIAN_POINT('',(-1.43932433308,-141.4634094424));
#1078 = CARTESIAN_POINT('',(-1.418918849244,-141.6462169774));
#1079 = CARTESIAN_POINT('',(-1.40217338729,-141.8499188941));
#1080 = CARTESIAN_POINT('',(-1.388965045264,-142.067885919));
#1081 = CARTESIAN_POINT('',(-1.379169733234,-142.2952497957));
#1082 = CARTESIAN_POINT('',(-1.37268245019,-142.5283218769));
#1083 = CARTESIAN_POINT('',(-1.369438406005,-142.7641536672));
#1084 = CARTESIAN_POINT('',(-1.369438406005,-143.));
#1085 = ( GEOMETRIC_REPRESENTATION_CONTEXT(2) 
PARAMETRIC_REPRESENTATION_CONTEXT() REPRESENTATION_CONTEXT('2D SPACE',''
  ) );
#1086 = PCURVE('',#913,#1087);
#1087 = DEFINITIONAL_REPRESENTATION('',(#1088),#1140);
#1088 = B_SPLINE_CURVE_WITH_KNOTS('',8,(#1089,#1090,#1091,#1092,#1093,
    #1094,#1095,#1096,#1097,#1098,#1099,#1100,#1101,#1102,#1103,#1104,
    #1105,#1106,#1107,#1108,#1109,#1110,#1111,#1112,#1113,#1114,#1115,
    #1116,#1117,#1118,#1119,#1120,#1121,#1122,#1123,#1124,#1125,#1126,
    #1127,#1128,#1129,#1130,#1131,#1132,#1133,#1134,#1135,#1136,#1137,
    #1138,#1139),.UNSPECIFIED.,.F.,.F.,(9,7,7,7,7,7,7,9),(0.,
    0.154164471477,0.286814553986,0.423216065663,0.578259302145,
    0.706185388492,0.827889919606,1.),.UNSPECIFIED.);
#1089 = CARTESIAN_POINT('',(0.,-10.20204102886));
#1090 = CARTESIAN_POINT('',(-0.104739945731,-10.20204102886));
#1091 = CARTESIAN_POINT('',(-0.209326289277,-10.19692273597));
#1092 = CARTESIAN_POINT('',(-0.31463243627,-10.1867113173));
#1093 = CARTESIAN_POINT('',(-0.421428453769,-10.17169090185));
#1094 = CARTESIAN_POINT('',(-0.530473257239,-10.1524273851));
#1095 = CARTESIAN_POINT('',(-0.642555479645,-10.12988884933));
#1096 = CARTESIAN_POINT('',(-0.758561104293,-10.10557846691));
#1097 = CARTESIAN_POINT('',(-0.983832813637,-10.06095808237));
#1098 = CARTESIAN_POINT('',(-1.095744963337,-10.03977792771));
#1099 = CARTESIAN_POINT('',(-1.212586816455,-10.02022007113));
#1100 = CARTESIAN_POINT('',(-1.332627460544,-10.00486476444));
#1101 = CARTESIAN_POINT('',(-1.45465014022,-9.996020270154));
#1102 = CARTESIAN_POINT('',(-1.577615237422,-9.994734318489));
#1103 = CARTESIAN_POINT('',(-1.700537927473,-10.00064759173));
#1104 = CARTESIAN_POINT('',(-1.947148075202,-10.02443810617));
#1105 = CARTESIAN_POINT('',(-2.066505600324,-10.04223901273));
#1106 = CARTESIAN_POINT('',(-2.181172721869,-10.06375599741));
#1107 = CARTESIAN_POINT('',(-2.291775168155,-10.08688076927));
#1108 = CARTESIAN_POINT('',(-2.398795832926,-10.10978959788));
#1109 = CARTESIAN_POINT('',(-2.5026188541,-10.13106870824));
#1110 = CARTESIAN_POINT('',(-2.60352703072,-10.14971177887));
#1111 = CARTESIAN_POINT('',(-2.813438962298,-10.18260281217));
#1112 = CARTESIAN_POINT('',(-2.923598181072,-10.19620454266));
#1113 = CARTESIAN_POINT('',(-3.032823638482,-10.2048179191));
#1114 = CARTESIAN_POINT('',(-3.141592653589,-10.20776552526));
#1115 = CARTESIAN_POINT('',(-3.250361668697,-10.2048179191));
#1116 = CARTESIAN_POINT('',(-3.359587126108,-10.19620454266));
#1117 = CARTESIAN_POINT('',(-3.469746344883,-10.18260281217));
#1118 = CARTESIAN_POINT('',(-3.673553884758,-10.15066827405));
#1119 = CARTESIAN_POINT('',(-3.767838606964,-10.13340393903));
#1120 = CARTESIAN_POINT('',(-3.864566301668,-10.11382327326));
#1121 = CARTESIAN_POINT('',(-3.964043901878,-10.0927163772));
#1122 = CARTESIAN_POINT('',(-4.066641969556,-10.07117304972));
#1123 = CARTESIAN_POINT('',(-4.172800442439,-10.05060390443));
#1124 = CARTESIAN_POINT('',(-4.283064698532,-10.03268096285));
#1125 = CARTESIAN_POINT('',(-4.507793797953,-10.00621187294));
#1126 = CARTESIAN_POINT('',(-4.620253335608,-9.997433321965));
#1127 = CARTESIAN_POINT('',(-4.733975400096,-9.99430762726));
#1128 = CARTESIAN_POINT('',(-4.847763023025,-9.997704900112));
#1129 = CARTESIAN_POINT('',(-4.9604911094,-10.00739161554));
#1130 = CARTESIAN_POINT('',(-5.070941740331,-10.02193256909));
#1131 = CARTESIAN_POINT('',(-5.177535190259,-10.03932456049));
#1132 = CARTESIAN_POINT('',(-5.419773464275,-10.08341521798));
#1133 = CARTESIAN_POINT('',(-5.554098691297,-10.11188289148));
#1134 = CARTESIAN_POINT('',(-5.6827810875,-10.13946223553));
#1135 = CARTESIAN_POINT('',(-5.807129954916,-10.16356271885));
#1136 = CARTESIAN_POINT('',(-5.928313334644,-10.18257932662));
#1137 = CARTESIAN_POINT('',(-6.047345827811,-10.19555274458));
#1138 = CARTESIAN_POINT('',(-6.165262140801,-10.20204102886));
#1139 = CARTESIAN_POINT('',(-6.28318530718,-10.20204102886));
#1140 = ( GEOMETRIC_REPRESENTATION_CONTEXT(2) 
PARAMETRIC_REPRESENTATION_CONTEXT() REPRESENTATION_CONTEXT('2D SPACE',''
  ) );
#1141 = ADVANCED_FACE('',(#1142),#786,.T.);
#1142 = FACE_BOUND('',#1143,.T.);
#1143 = EDGE_LOOP('',(#1144));
#1144 = ORIENTED_EDGE('',*,*,#771,.T.);
#1145 = ADVANCED_FACE('',(#1146),#913,.F.);
#1146 = FACE_BOUND('',#1147,.T.);
#1147 = EDGE_LOOP('',(#1148,#1149,#1170,#1171));
#1148 = ORIENTED_EDGE('',*,*,#975,.F.);
#1149 = ORIENTED_EDGE('',*,*,#1150,.T.);
#1150 = EDGE_CURVE('',#976,#802,#1151,.T.);
#1151 = SEAM_CURVE('',#1152,(#1156,#1163),.PCURVE_S1.);
#1152 = LINE('',#1153,#1154);
#1153 = CARTESIAN_POINT('',(68.,792.,-418.));
#1154 = VECTOR('',#1155,1.);
#1155 = DIRECTION('',(0.,1.,0.));
#1156 = PCURVE('',#913,#1157);
#1157 = DEFINITIONAL_REPRESENTATION('',(#1158),#1162);
#1158 = LINE('',#1159,#1160);
#1159 = CARTESIAN_POINT('',(-6.28318530718,0.));
#1160 = VECTOR('',#1161,1.);
#1161 = DIRECTION('',(-0.,-1.));
#1162 = ( GEOMETRIC_REPRESENTATION_CONTEXT(2) 
PARAMETRIC_REPRESENTATION_CONTEXT() REPRESENTATION_CONTEXT('2D SPACE',''
  ) );
#1163 = PCURVE('',#913,#1164);
#1164 = DEFINITIONAL_REPRESENTATION('',(#1165),#1169);
#1165 = LINE('',#1166,#1167);
#1166 = CARTESIAN_POINT('',(-0.,0.));
#1167 = VECTOR('',#1168,1.);
#1168 = DIRECTION('',(-0.,-1.));
#1169 = ( GEOMETRIC_REPRESENTATION_CONTEXT(2) 
PARAMETRIC_REPRESENTATION_CONTEXT() REPRESENTATION_CONTEXT('2D SPACE',''
  ) );
#1170 = ORIENTED_EDGE('',*,*,#801,.T.);
#1171 = ORIENTED_EDGE('',*,*,#1150,.F.);
#1172 = ( GEOMETRIC_REPRESENTATION_CONTEXT(3) 
GLOBAL_UNCERTAINTY_ASSIGNED_CONTEXT((#1176)) 
GLOBAL_UNIT_ASSIGNED_CONTEXT((#1173,#1174,#1175)) REPRESENTATION_CONTEXT
('Context #1','3D Context with UNIT and UNCERTAINTY') );
#1173 = ( LENGTH_UNIT() NAMED_UNIT(*) SI_UNIT(.MILLI.,.METRE.) );
#1174 = ( NAMED_UNIT(*) PLANE_ANGLE_UNIT() SI_UNIT($,.RADIAN.) );
#1175 = ( NAMED_UNIT(*) SI_UNIT($,.STERADIAN.) SOLID_ANGLE_UNIT() );
#1176 = UNCERTAINTY_MEASURE_WITH_UNIT(LENGTH_MEASURE(1.E-07),#1173,
  'distance_accuracy_value','confusion accuracy');
#1177 = CONTEXT_DEPENDENT_SHAPE_REPRESENTATION(#1178,#1180);
#1178 = ( REPRESENTATION_RELATIONSHIP('','',#613,#10) 
REPRESENTATION_RELATIONSHIP_WITH_TRANSFORMATION(#1179) 
SHAPE_REPRESENTATION_RELATIONSHIP() );
#1179 = ITEM_DEFINED_TRANSFORMATION('','',#11,#19);
#1180 = PRODUCT_DEFINITION_SHAPE('Placement','Placement of an item',
  #1181);
#1181 = NEXT_ASSEMBLY_USAGE_OCCURRENCE('18','outer_lower_hinge_pin','',
  #5,#608,$);
#1182 = PRODUCT_RELATED_PRODUCT_CATEGORY('part',$,(#610));
ENDSEC;
END-ISO-10303-21;
